STARTFONT 2.3
FONT -FontForge-Permanent Marker-Book-R-Normal--32-320-72-72-P-185-ISO10646-1
SIZE 32 72 72  2
FONTBOUNDINGBOX 50 46 -10 -10
COMMENT "Generated by fontforge, http://fontforge.sourceforge.net"
COMMENT "Copyright (c) 2010 by Font Diner, Inc. All rights reserved."
STARTPROPERTIES 40
FOUNDRY "FontForge"
FAMILY_NAME "Permanent Marker"
WEIGHT_NAME "Book"
SLANT "R"
SETWIDTH_NAME "Normal"
ADD_STYLE_NAME ""
PIXEL_SIZE 32
POINT_SIZE 320
RESOLUTION_X 72
RESOLUTION_Y 72
SPACING "P"
AVERAGE_WIDTH 185
CHARSET_REGISTRY "ISO10646"
CHARSET_ENCODING "1"
FONTNAME_REGISTRY ""
CHARSET_COLLECTIONS "ISO10646-1"
BITS_PER_PIXEL 2
FONT_NAME "PermanentMarker-Regular"
FACE_NAME "Permanent Marker Regular"
COPYRIGHT "Copyright (c) 2010 by Font Diner, Inc. All rights reserved."
FONT_VERSION "1.001"
FONT_ASCENT 26
FONT_DESCENT 6
UNDERLINE_POSITION -3
UNDERLINE_THICKNESS 2
X_HEIGHT 18
CAP_HEIGHT 22
RAW_ASCENT 799
RAW_DESCENT 200
NORM_SPACE 12
RELATIVE_WEIGHT 40
RELATIVE_SETWIDTH 50
SUPERSCRIPT_X 0
SUPERSCRIPT_Y 14
SUPERSCRIPT_SIZE 20
SUBSCRIPT_X 0
SUBSCRIPT_Y 4
SUBSCRIPT_SIZE 20
AVG_LOWERCASE_WIDTH 182
AVG_UPPERCASE_WIDTH 217
ENDPROPERTIES
CHARS 230
STARTCHAR space
ENCODING 32
SWIDTH 370 0
DWIDTH 12 0
BBX 1 1 0 0
BITMAP
00
ENDCHAR
STARTCHAR exclam
ENCODING 33
SWIDTH 260 0
DWIDTH 8 0
BBX 9 25 0 -1
BITMAP
000900
002E00
007F40
00BF40
00FF40
01FF80
01FF40
01FF00
02FE00
03FE00
07FD00
07FD00
0BFC00
0BFC00
0BF800
0BF400
019000
000000
000000
1A4000
7FE000
BFE000
BFD000
7FC000
1A0000
ENDCHAR
STARTCHAR quotedbl
ENCODING 34
SWIDTH 492 0
DWIDTH 16 0
BBX 15 16 2 8
BITMAP
01800640
03F80BF4
07FE0FFC
0BFE1FF8
0FFD2FF4
1FF83FF0
2FF47FE0
2FF0BFD0
3FF0FFC0
7FE0FF80
7FD1FF80
7FD1FF40
7FC2FF00
3F81FE00
1F00BD00
05001400
ENDCHAR
STARTCHAR numbersign
ENCODING 35
SWIDTH 703 0
DWIDTH 23 0
BBX 22 23 1 0
BITMAP
00007000A000
0000F801F400
0001FD03F800
0002FE07FC00
0003FE0BFC00
0007FD0FF800
06AFFFFFFE40
1FFFFFFFFFE0
1FFFFFFFFFF0
1FFFFFFFFA40
06BFD07FC000
007FC0BF8000
00BF80FF4000
16FFFFFFF400
FFFFFFFFFE00
FFFFFFFFFD00
FFFFEFFE9000
6BFD0FF80000
0FF81FF40000
1FF43FF00000
2FF03FE00000
2FE03FD00000
0B801B400000
ENDCHAR
STARTCHAR dollar
ENCODING 36
SWIDTH 493 0
DWIDTH 16 0
BBX 17 25 1 -1
BITMAP
0000040000
00002C0000
00007E0000
0000BF0000
0000FF4000
0001FFFD00
006FFFFF00
1BFFFFFF40
7FFFFBFF40
FFFD000000
FFFE400000
BFFFF00000
2FFFF80000
0016FD0000
00003F0000
0000BF0000
0006FF0000
006FFD0000
2FFFF80000
3FFFD00000
2FFF400000
1BFE000000
03FD000000
02FC000000
0060000000
ENDCHAR
STARTCHAR percent
ENCODING 37
SWIDTH 643 0
DWIDTH 21 0
BBX 20 23 1 0
BITMAP
0009000005
007F40001F
01FF4000BF
07FF8002FE
1FFFC00BFD
3F9FE02FF8
7FAFE07FE0
7FFFE1FF40
7FFFD7FD00
2FFD2FF400
01407FD000
0001FF4000
0007FD0900
002FF43F00
00BFD1FF00
02FF47FF40
0BFD1FFFC0
1FF43FDFD0
3FD07F5FE0
7FC07FFFE0
BF807FFFD0
BF402FFE40
6D00055000
ENDCHAR
STARTCHAR ampersand
ENCODING 38
SWIDTH 599 0
DWIDTH 19 0
BBX 19 17 0 1
BITMAP
0000020000
00001F8000
00002FD000
00507FD000
07F8BFD000
1FFFFFD000
3FFFFFE500
BFAFFFFFD0
BFFFFFFFF4
7FFFFFFFF4
1FFFFFAA40
019BFF0000
0007FF0000
0007FE0000
000BFD0000
0007F80000
0001A00000
ENDCHAR
STARTCHAR quotesingle
ENCODING 39
SWIDTH 265 0
DWIDTH 9 0
BBX 8 16 2 8
BITMAP
0180
03F8
07FE
0BFE
0FFD
1FF8
2FF4
2FF0
3FF0
7FE0
7FD0
7FD0
7FC0
3F80
1F00
0500
ENDCHAR
STARTCHAR parenleft
ENCODING 40
SWIDTH 361 0
DWIDTH 12 0
BBX 14 33 1 -6
BITMAP
000001E0
00000BF0
00002FE0
0000BFF0
0002FFE0
000BFFD0
002FFF40
007FF800
01FFE000
02FFC000
07FF4000
0FFF0000
1FFD0000
2FF80000
2FF40000
2FF00000
3FE00000
7FD00000
BFD00000
FFC00000
FFC00000
FFC00000
FFC00000
FFC00000
FFD00000
BFD00000
7FE00000
7FF00000
3FF00000
1FE00000
07F00000
02F40000
00600000
ENDCHAR
STARTCHAR parenright
ENCODING 41
SWIDTH 361 0
DWIDTH 12 0
BBX 15 33 -4 -6
BITMAP
0000A400
0000FC00
0000BE00
0000BF80
0000BFD0
0000BFE0
00007FE0
00007FF0
00003FF4
00003FF4
00002FF4
00002FF0
00002FF0
00002FF0
00003FF0
00007FD0
0000BFD0
0000FFC0
0001FFC0
0002FF80
0007FF40
000BFF00
001FFD00
003FFC00
00BFF400
03FFE000
1FFF8000
3FFE0000
7FF80000
BFE00000
BF800000
BE000000
64000000
ENDCHAR
STARTCHAR asterisk
ENCODING 42
SWIDTH 673 0
DWIDTH 22 0
BBX 21 17 2 7
BITMAP
000100000000
001B801B8000
003FD0BF4000
007FF6FF0000
007FFFFD0000
001FFFF80000
001BFFFAA400
7FFFFFFFFE00
7FFFFFFFFF40
7FFFFFFFF900
2FEFFFF80000
002FFFFC0000
003FFBFD0000
00BFD2FE0000
01FFC0FD0000
01FF407D0000
001400140000
ENDCHAR
STARTCHAR plus
ENCODING 43
SWIDTH 579 0
DWIDTH 19 0
BBX 17 17 0 0
BITMAP
0000680000
0001FD0000
0001FF0000
0003FE0000
0007FE0000
000BFE0000
05AFFFA400
7FFFFFFE00
7FFFFFFFC0
7FFFFFFF80
2FFFF95000
002FF40000
003FF00000
003FF00000
003FE00000
002FC00000
0005000000
ENDCHAR
STARTCHAR comma
ENCODING 44
SWIDTH 204 0
DWIDTH 7 0
BBX 8 11 -4 -6
BITMAP
0040
02F9
03FE
07FF
0BFE
0FFD
1FFC
3FF4
7FF0
2FC0
0100
ENDCHAR
STARTCHAR hyphen
ENCODING 45
SWIDTH 609 0
DWIDTH 20 0
BBX 17 5 1 6
BITMAP
15AABEA400
FFFFFFFD00
FFFFFFFF40
FFFFFFFE00
7FA9554000
ENDCHAR
STARTCHAR period
ENCODING 46
SWIDTH 228 0
DWIDTH 7 0
BBX 6 6 -1 -1
BITMAP
1A40
7FE0
BFE0
BFD0
7FC0
1A00
ENDCHAR
STARTCHAR slash
ENCODING 47
SWIDTH 401 0
DWIDTH 13 0
BBX 17 24 -1 -1
BITMAP
0000000600
0000002F00
0000007F40
000001FF40
000003FF00
00000FFE00
00001FF800
00007FE000
0001FF8000
0003FF0000
000BFD0000
001FF40000
007FE00000
01FF800000
07FF000000
0FFC000000
2FF4000000
7FD0000000
BF80000000
FF40000000
FF40000000
FF40000000
BE00000000
1400000000
ENDCHAR
STARTCHAR zero
ENCODING 48
SWIDTH 686 0
DWIDTH 22 0
BBX 21 26 0 -1
BITMAP
000000100000
0000007D0000
000002FF0000
00000BFF8000
00002FFFD000
0000BFFFC000
0002FFFFC000
000BFFFFC000
002FFFFFE000
00BFFFFFF000
01FFF81FF800
03FFE00FFC00
0BFF8007FD00
0FFF0003FE00
2FFD0002FF00
3FFC0001FF40
7FF40002FF80
7FF00007FF80
7FE0002FFF80
7FF416FFFF40
7FFFFFFFFF00
3FFFFFFFF800
2FFFFFFFE000
0BFFFFFE4000
02FFFFE40000
006AA4000000
ENDCHAR
STARTCHAR one
ENCODING 49
SWIDTH 322 0
DWIDTH 10 0
BBX 9 24 0 0
BITMAP
014000
03E000
03F800
07FE00
03FF00
03FF40
02FF40
01FF80
01FF80
01FF80
01FF80
02FF80
03FF40
07FF40
0BFF00
0FFE00
1FFD00
2FFD00
3FFC00
3FF800
7FF000
7FF000
3FE000
1FC000
ENDCHAR
STARTCHAR two
ENCODING 50
SWIDTH 650 0
DWIDTH 21 0
BBX 21 24 2 0
BITMAP
000540000000
1BFFFE400000
7FFFFFF40000
BFFFFFF80000
BFFFFFFE0000
BFFFFFFF8000
7FFA5BFFC000
05000FFFC000
00007FFF8000
0001FFFF0000
000BFFFD0000
002FFFF00000
00BFFF800000
02FFFD000000
0BFFF4000000
2FFFD0000000
7FFE00006800
BFF805BFFE00
FFFFFFFFFF00
FFFFFFFFFF80
FFFFFFFFFF40
BFFFFFFFF500
7FFFFFE90000
1BFE94000000
ENDCHAR
STARTCHAR three
ENCODING 51
SWIDTH 561 0
DWIDTH 18 0
BBX 19 23 -1 0
BITMAP
00016AFF40
06BFFFFFD0
1FFFFFFFE0
3FFFFFFFF4
7FFFFFFFF8
7FFFFFFFF0
3FFFFFFFD0
166FFFFE00
003FFFE400
007FFFC000
007FFFF400
007FFFFD00
002FFFFF40
0006FFFF80
00001BFFD0
000000FFE0
000006FFE0
07AAFFFFD0
0BFFFFFFC0
0FFFFFFF40
1FFFFFF800
1FFFFF8000
06AA900000
ENDCHAR
STARTCHAR four
ENCODING 52
SWIDTH 582 0
DWIDTH 19 0
BBX 18 25 1 -1
BITMAP
0000034000
000007D000
00000BF000
18000BF400
7E000FF400
7F400FF400
7F800FF000
7FC01FF000
3FD01FF540
3FE56FFF80
2FFFFFFFD0
2FFFFFFFD0
1FFFFFFF80
0BFFFFF900
02FFFF8000
0006FF0000
0003FE0000
0003FD0000
0007FC0000
0007F80000
0007FC0000
0003FE0000
0003FF0000
0001FF0000
0000BA0000
ENDCHAR
STARTCHAR five
ENCODING 53
SWIDTH 580 0
DWIDTH 19 0
BBX 20 23 1 0
BITMAP
0002800000
002FF00010
01FFFEBFFC
07FFFFFFFD
1FFFFFFFFF
3FFFFFFFFF
7FFFFFFFFE
7FFFFFA940
7FFF940000
7FFFD00000
2FFFF80000
0FFFFE0000
02FFFF8000
002FFFD000
0001BFF000
00001FF400
00002FF800
3EAAFFF800
7FFFFFF800
3FFFFFF400
1FFFFFD000
0BFFFF4000
016AA40000
ENDCHAR
STARTCHAR six
ENCODING 54
SWIDTH 500 0
DWIDTH 16 0
BBX 16 25 -1 -1
BITMAP
00000100
00006F40
0001FFC0
0007FFC0
000FFFE0
002FFFD0
003FFD40
00BFF000
00FFD000
01FF8000
03FF0000
07FE0000
0BFD1BD0
0FFCBFF8
1FF6FFFC
2FF7FFFF
3FEBFFFF
7FDBFFFF
7FDFFFFF
7FFFFFFD
7FFFFFF4
3FFFFFD0
2FFFFE40
0BFF9000
01540000
ENDCHAR
STARTCHAR seven
ENCODING 55
SWIDTH 576 0
DWIDTH 18 0
BBX 20 23 0 0
BITMAP
1BFFA50000
7FFFFFD000
7FFFFFF000
BFFFFFF800
BFFFFFFE00
3EABFFFE00
000007FF00
000002FF00
000002FE00
000003FE00
00005BFFE9
01BFFFFFFE
07FFFFFFFE
0BFFFFFFFD
0FFFFFFF94
07FFFFD000
01ABFF4000
000BFE0000
001FFC0000
001FF40000
002FF00000
002FE00000
001BC00000
ENDCHAR
STARTCHAR eight
ENCODING 56
SWIDTH 537 0
DWIDTH 17 0
BBX 17 25 2 -1
BITMAP
0015000000
01FFE02800
0BFFF8BE00
2FFFFCBF00
7FFFFDBF40
BFFFFE7F80
FFD2FDBF80
FF81BFFF80
FF802FFF00
BFE6FFFD00
7FFFFFF400
2FFFFFC000
0FFFFE0000
1FFFF00000
2FFFF00000
7FFFF40000
7F8FF80000
7F47FC0000
7F83FD0000
7FFFFD0000
3FFFFC0000
1FFFFC0000
0FFFF40000
02FF900000
0015000000
ENDCHAR
STARTCHAR nine
ENCODING 57
SWIDTH 529 0
DWIDTH 17 0
BBX 17 25 1 -1
BITMAP
0000140000
0006FF0000
002FFFC000
01FFFFE000
07FFFFF400
1FFFFFFC00
2FFF47FC00
7FF86FFD00
BFFFFFFE00
BFFFFFFF40
BFFFFFFE00
7FFFFFF800
2FFFFFF000
01941FE000
00002FD000
00003FD000
00003FC000
00007FC000
0000BF8000
0000BF4000
0000BF4000
0000FF0000
0000FE0000
0000FD0000
0000540000
ENDCHAR
STARTCHAR colon
ENCODING 58
SWIDTH 241 0
DWIDTH 8 0
BBX 8 15 -1 -1
BITMAP
0690
0BFC
0FFC
0FFD
07FD
02E0
0000
0000
0000
1A40
7FE0
BFE0
BFD0
7FC0
1A00
ENDCHAR
STARTCHAR semicolon
ENCODING 59
SWIDTH 245 0
DWIDTH 8 0
BBX 10 20 -3 -6
BITMAP
002900
00BFD0
00BFD0
00FFD0
007FD0
002E00
000000
000000
000000
004000
02F900
03FE00
07FF00
0BFE00
0FFD00
1FFC00
3FF400
7FE000
2FC000
010000
ENDCHAR
STARTCHAR less
ENCODING 60
SWIDTH 625 0
DWIDTH 20 0
BBX 20 14 0 1
BITMAP
00000007F8
0000007FFE
00000BFFFE
0002BFFFF4
00AFFFFF80
7FFFFFE400
FFFFFE0000
BFFFD00000
7FFFF90000
0BFFFFD000
01BFFFF800
000BFFFE00
00006BFF80
0000006F80
ENDCHAR
STARTCHAR equal
ENCODING 61
SWIDTH 586 0
DWIDTH 19 0
BBX 18 12 0 3
BITMAP
0000155000
06BFFFFF80
1FFFFFFFE0
1FFFFFFFE0
1FFFFEA940
0640000000
0000000000
056AFFF800
7FFFFFFE00
BFFFFFFE00
BFFFFEA400
6A50000000
ENDCHAR
STARTCHAR greater
ENCODING 62
SWIDTH 634 0
DWIDTH 20 0
BBX 21 15 -2 1
BITMAP
001000000000
01FE40000000
01FFFA000000
007FFFE40000
001FFFFF4000
0002FFFFF400
00001BFFFE00
000002FFFF40
00006FFFFF40
001BFFFFFE00
01FFFFFA0000
1FFFFF900000
7FFFE4000000
7FFE00000000
1FE000000000
ENDCHAR
STARTCHAR question
ENCODING 63
SWIDTH 556 0
DWIDTH 18 0
BBX 19 25 1 -1
BITMAP
0015540000
01FFFFE500
07FFFFFFE0
0FFFFFFFF8
1FFFFFFFF8
0FFFFFFFF8
06905AFFF8
000001FFF4
00000BFFF0
00007FFFD0
0002FFFF40
001FFFF800
003FFF8000
00FFFD0000
01FFE00000
02FF000000
01F8000000
0000000000
0000000000
1A40000000
3FE0000000
7FE0000000
7FF0000000
2FE0000000
0A00000000
ENDCHAR
STARTCHAR at
ENCODING 64
SWIDTH 732 0
DWIDTH 23 0
BBX 24 25 -1 -1
BITMAP
0000002A4000
000000BFF400
000000BFFD00
000001FFFF40
000007FFFF40
00002FFD7FD0
0000FFE01FE0
0007FF8007F4
002FFD00F3FC
00BFF42FF1FD
02FFC1FFF0FE
0BFF4BFFE0BE
1FFD3FFFE0BE
2FF4FFDFD0FE
3FE2FF0FD0FD
7FC2FF6FE6FC
3F81FFFFFFF0
3F40FFFFFF80
3F002FFFA900
2FE400500000
0FFE40001400
03FFFFFFFD00
00BFFFFFFF40
000BFFFFFF40
000016AAA400
ENDCHAR
STARTCHAR A
ENCODING 65
SWIDTH 702 0
DWIDTH 22 0
BBX 24 24 -1 -1
BITMAP
000000390000
000000BFD000
000002FFE000
00001BFFE000
0001FFFFF000
0003FFFFF000
000BFFFFF400
000FFFFFF400
002FFFAFF800
003FFE2FFC00
007FFC1FFC00
00FFF40FFE90
01FFE01FFFF8
03FFFFFFFFFD
07FFFFFFFFF8
0BFFFFFFFFD0
1FFEBFFFFF80
2FFC3FE6FFC0
3FF80001FFC0
7FF4001BFFC0
7FF0001FFF80
3FE00007FE00
1F800002F800
000000004000
ENDCHAR
STARTCHAR B
ENCODING 66
SWIDTH 686 0
DWIDTH 22 0
BBX 22 25 -1 -1
BITMAP
000001540000
0016BFFFE000
06FFFFFFF800
2FFFFFFFFF00
BFFFFFFFFF80
BFFFF957FFC0
7FFF801FFFC0
1FEFD07FFF40
068FFAFFFE00
000FFFFFFC00
001FFFFFF000
002FFFFFD000
003FFFFFF400
007FFFFFFE00
007FFA41BF80
00FFE0002FD0
01FFD000BFE0
02FFC007FFF0
03FF80BFFFF0
03FF9BFFFFD0
07FFFFFFFF40
07FFFFFFF800
03FFFFFF9000
01FFFFE40000
006469000000
ENDCHAR
STARTCHAR C
ENCODING 67
SWIDTH 611 0
DWIDTH 20 0
BBX 19 23 0 0
BITMAP
0000001F40
000001FFE0
00001BFFF8
0000BFFFFC
000BFFFFF8
007FFFFFF0
01FFFFFE80
07FFFFD000
1FFFFD0000
3FFFE40000
7FFF400000
FFFC000000
FFF0000000
FFD0000000
BF80000000
BFC0000000
7FE4000000
3FFFAA9500
2FFFFFFFC0
0BFFFFFFE0
02FFFFFFF0
006FFFFFD0
0001AFFA40
ENDCHAR
STARTCHAR D
ENCODING 68
SWIDTH 588 0
DWIDTH 19 0
BBX 19 23 0 0
BITMAP
0B90000000
0FF9000000
0BFFE40000
0BFFFE0000
0FFFFF8000
0FFFFFF400
0FF1BFFD00
0BF007FF40
0BF400BFC0
0BF4002FE0
0BF4000BF0
0BF4000BF4
0BF4002FF4
1FF401BFF4
1FF41BFFE0
2FF1BFFFC0
3FFBFFFF40
7FFFFFF800
7FFFFFE000
7FFFFE0000
7FFFE00000
3FFD000000
1F90000000
ENDCHAR
STARTCHAR E
ENCODING 69
SWIDTH 626 0
DWIDTH 20 0
BBX 21 24 0 -1
BITMAP
0000005AFD00
00016FFFFF40
006FFFFFFF80
07FFFFFFFF40
0BFFFFFFFD00
0BFFFFFA5000
07FFFE800000
03FF80000000
02FFD5540000
02FFFFFD0000
03FFFFFF8000
07FFFFFFD000
0FFFFFFF4000
1FFFFFF80000
3FFD15000000
7FF800000000
BFF000014000
BFE55ABFE000
BFFFFFFFF800
7FFFFFFFFC00
3FFFFFFFF400
2FFFFFFF9000
07FFFFA40000
001500000000
ENDCHAR
STARTCHAR F
ENCODING 70
SWIDTH 575 0
DWIDTH 18 0
BBX 24 25 -1 -1
BITMAP
000000005540
0000006FFFE0
00006BFFFFF8
001BFFFFFFFE
02FFFFFFFFFE
03FFFFFFA554
03FFFF900000
02FFFD000000
00FFFC000000
002FF8000000
002FF4000000
003FF0054000
2FBFFAFFE000
7FFFFFFFF400
BFFFFFFFF000
7FFFFFFFD000
2FFFFFA94000
0FFF94000000
0FFD00000000
0FFC00000000
1FF400000000
1FF400000000
0BF400000000
03E000000000
004000000000
ENDCHAR
STARTCHAR G
ENCODING 71
SWIDTH 789 0
DWIDTH 25 0
BBX 27 23 0 0
BITMAP
00000007D00000
0000002FF80000
000001FFFE0000
00001FFFFE0000
0000BFFFFF0000
0002FFFFF80000
000FFFFF800000
002FFFF8000000
00FFFF90000000
03FFFE00290000
0BFFF401FF8000
1FFFD002FFF800
3FFF4001FFFF40
7FFD0000FFFFD0
FFF400007FFFF4
FFE000007FFFF4
BFC0016FFFFFF4
BFEAAFFFFFFFD0
7FFFFFFFFFFF40
3FFFFFFFFFE400
1FFFFFFFF90000
0BFFFFFE400000
01BFE940000000
ENDCHAR
STARTCHAR H
ENCODING 72
SWIDTH 695 0
DWIDTH 22 0
BBX 23 25 -1 -1
BITMAP
000000000500
000400000F00
003C00001F80
007E00002FC0
00BF40002FE0
00FFC0002FF4
00FFE0007FF4
00FFE0003FF8
01FFD0007FF8
01FFD0007FF8
01FFC000BFF8
02FFC000BFF4
02FF801BFFF0
03FF9AFFFFF0
0BFFFFFFFFE0
0BFFFFFFFFD0
0FFFFFFFFFC0
1FFFFFFFFF80
2FFFFE0BFF00
2FFFD00BFF00
7FFF000FFF40
3FFE000BFF00
2FFC0002FD00
0BF40001E400
014000000000
ENDCHAR
STARTCHAR I
ENCODING 73
SWIDTH 515 0
DWIDTH 17 0
BBX 22 25 -1 -1
BITMAP
000000054000
0016BFFFFE00
007FFFFFFF80
007FFFFFFFE0
007FFFFFFFD0
002FFFFEA500
000A5FF80000
00001FF80000
00002FF40000
00003FF00000
00007FE00000
00007FD00000
0000FFC00000
0001FF800000
0002FF800000
0003FF400000
000BFE000000
000FFD000000
001FFE400000
6AFFFFF40000
FFFFFFFD0000
FFFFFFFC0000
BFFFFFF40000
7FE550000000
140000000000
ENDCHAR
STARTCHAR J
ENCODING 74
SWIDTH 668 0
DWIDTH 21 0
BBX 27 23 -1 0
BITMAP
0000155AAAA940
006BFFFFFFFFC0
02FFFFFFFFFFF0
03FFFFFFFFFFF4
02FFFFFFFFFFF4
01FFFAAFFE5550
0079000FFC0000
0000001FFC0000
0000002FF80000
0000002FF40000
0000003FF40000
0000007FF00000
000000BFE00000
000000FFD00000
000001FFC00000
000002FF800000
000007FF400000
7F946FFF000000
7FFFFFFE000000
BFFFFFFC000000
7FFFFFF4000000
2FFFFF80000000
055AE900000000
ENDCHAR
STARTCHAR K
ENCODING 75
SWIDTH 776 0
DWIDTH 25 0
BBX 26 24 0 -1
BITMAP
0007E000000000
000FFC00019000
001FFE000BF800
003FFE007FFE00
007FFD02FFFF00
00BFFC1FFFFE00
00FFF47FFFF800
01FFE2FFFFD000
02FFEFFFFE0000
03FFFFFFE40000
07FFFFFF800000
0BFFFFFE000000
1FFFFFF4000000
1FFFFFF4000000
2FFFFFFD000000
3FFFFFFF940000
3FFFE7FFFFFF40
7FFF81FFFFFFD0
BFFF007FFFFFD0
7FFD000BFFFFC0
3FF800007FFF00
2FF00000055400
1FC00000000000
01000000000000
ENDCHAR
STARTCHAR L
ENCODING 76
SWIDTH 632 0
DWIDTH 20 0
BBX 20 25 0 -1
BITMAP
0004000000
001F900000
002FF40000
003FFC0000
007FF80000
00BFF40000
00FFF00000
01FFE00000
02FFD00000
03FFC00000
07FF400000
0FFF000000
1FFE000000
2FFD000000
3FFC000000
7FF8000000
7FF4000000
BFF0155500
BFFAFFFF90
BFFFFFFFFC
7FFFFFFFFD
3FFFFFFFFE
1FFFFFFFF9
0BFF940040
0054000000
ENDCHAR
STARTCHAR M
ENCODING 77
SWIDTH 973 0
DWIDTH 31 0
BBX 31 25 0 -1
BITMAP
0000140000000000
0000BD0000001900
0001FF9000003F80
0003FFE00000BFE0
000BFFF40002FFF4
001FFFF8000BFFF8
002FFFF8002FFFF8
007FFFF800FFFFF4
00BFFFF807FFFFF4
01FFFFFD7FFFFFF0
02FFFFFFFFFFFFF0
03FFFFFFFFFFFFF0
0BFFFFFFFFFDFFE0
0FFFBFFFFFE0FFD0
1FFF1FFFFF41FFD0
3FFE07FFF402FFD0
7FFD01AA4002FFD0
BFFC00000003FFC0
BFF400000003FF80
BFF000000003FF40
BFE000000003FF00
7FC000000003FD00
3F8000000001F800
2F40000000005000
0500000000000000
ENDCHAR
STARTCHAR N
ENCODING 78
SWIDTH 684 0
DWIDTH 22 0
BBX 24 24 -1 0
BITMAP
000000000100
0000A4000780
0000FE000BE4
0002FF800FFC
0003FFD01FFE
000BFFE02FFE
000FFFD02FFD
001FFFD03FF8
003FFFC03FF4
007FFF807FF0
00FFFF80BFF0
01FFFF80FFE0
03FFFF41FFE0
07FFFF42FFD0
0FFFFF47FFD0
1FFFFF9FFFC0
2FFFFFFFFF80
7FFF7FFFFF40
7FFE2FFFFF00
3FFC0FFFFD00
2FF807FFF800
1FF401FFE000
0BF0007F8000
02D000040000
ENDCHAR
STARTCHAR O
ENCODING 79
SWIDTH 744 0
DWIDTH 24 0
BBX 23 25 0 -1
BITMAP
0000000A4000
0000006FC000
000001FFF000
000007FFF800
00002FFFFC00
0000FFFFF400
0003FFFFF800
001FFFFFFC00
007FFFFFFE00
00FFFE52FF40
02FFF801FF80
07FFD000BFD0
0FFF40003FE0
2FFE00002FF0
3FFC00001FF4
7FF400002FF8
BFE00000BFF8
BFD0001BFFF8
BFE55AFFFFF4
BFFFFFFFFFE0
3FFFFFFFFF40
1FFFFFFFFD00
0BFFFFFF9000
01BFFFA40000
000450000000
ENDCHAR
STARTCHAR P
ENCODING 80
SWIDTH 639 0
DWIDTH 20 0
BBX 21 25 1 -1
BITMAP
000005540000
0001BFFF8000
0007FFFFF400
001FFFFFF800
003FFFFFFD00
00BFFFFFFE00
00FFFFFFFF00
01FFD007FF40
07FF4007FF40
1FFF01BFFF40
3FFFBFFFFF40
7FFFFFFFFF00
7FFFFFFFFC00
BFFFFFFFE000
BFFFFFFE0000
7FFFFE500000
3FFE50000000
3FF400000000
3FF400000000
7FF400000000
7FF400000000
BFF000000000
7FE000000000
3FC000000000
050000000000
ENDCHAR
STARTCHAR Q
ENCODING 81
SWIDTH 744 0
DWIDTH 24 0
BBX 23 26 0 -2
BITMAP
000000510000
000001FF8000
000002FFF000
000002FFFC00
000007FFFE00
00002FFFFF00
0000FFFFFF80
0007FFFFFFD0
001FFFF47FE0
00BFFF802FF4
02FFFD000FF8
0BFFF4000BFC
1FFFC2940BFC
3FFF07FD0FFC
BFFC03FF6FFC
FFF401FFFFF8
FFD000BFFFF4
FFC001BFFFE0
BF416FFFFF80
BFEFFFFFFF00
BFFFFFFFFF40
7FFFFFFFFF80
1FFFFFE4FFC0
06FFF900BFD0
001500003FC0
000000001F40
ENDCHAR
STARTCHAR R
ENCODING 82
SWIDTH 646 0
DWIDTH 21 0
BBX 21 25 0 -1
BITMAP
000001400000
00000BE00000
00003FFC0000
0000FFFE0000
0002FFFF8000
0007FFFFD000
011FFFFFE000
03FFFDBFF400
07FFF03FF800
07FFD02FF800
0BFF41BFF800
0FFFAFFFF800
0FFFFFFFF000
1FFFFFFFD000
2FFFFFFD0000
2FFFFF900000
3FFFF4000000
3FFFF9000000
7FFFFF900000
7FFFFFFE5000
7FE7FFFFFF00
7FD1FFFFFF80
3FC01FFFFF80
1F4001BFFF80
00000006FE00
ENDCHAR
STARTCHAR S
ENCODING 83
SWIDTH 576 0
DWIDTH 18 0
BBX 22 25 0 -1
BITMAP
000000055000
000006BFFF00
0001BFFFFF80
006FFFFFFFC0
06FFFFFFFFE0
1FFFFFFFFFE0
7FFFFE965540
7FFFE0000000
BFFFF9000000
BFFFFF800000
7FFFFFE00000
1BFFFFF00000
0056BFF80000
000006FD0000
000000FE0000
000002FF0000
000007FF0000
00007FFE0000
0007FFFC0000
0AFFFFF40000
0FFFFFD00000
0FFFFF400000
0FFFF4000000
0BFE40000000
015000000000
ENDCHAR
STARTCHAR T
ENCODING 84
SWIDTH 607 0
DWIDTH 19 0
BBX 25 25 0 -1
BITMAP
00000000055000
00000BABFFFD00
6AAFFFFFFFFF40
FFFFFFFFFFFF80
FFFFFFFFFFFF80
BFFFFFFFFFE900
7FFFFFF9400000
1AA9BFF0000000
0000FFE0000000
0001FFD0000000
0003FFC0000000
0007FF40000000
000BFF00000000
000FFE00000000
001FFC00000000
002FF800000000
003FF400000000
007FE000000000
007FD000000000
007FC000000000
007FC000000000
003FE000000000
002FF400000000
001BF400000000
00019000000000
ENDCHAR
STARTCHAR U
ENCODING 85
SWIDTH 695 0
DWIDTH 22 0
BBX 22 23 1 0
BITMAP
000000000E00
000000001F80
020000002FC0
0F8000003FD0
1FD000003FE0
2FF000007FF0
2FF400007FF0
2FF80000BFE0
3FF80001FFE0
7FF80002FFD0
7FF40007FFC0
7FF0000FFF80
7FF0003FFF00
7FF001FFFD00
7FF40BFFFC00
7FF9BFFFE400
7FFFFFFF8000
2FFFFFFF0000
1FFFFFFD0000
0FFFFFF40000
0BFFFF800000
02FFF9000000
006A90000000
ENDCHAR
STARTCHAR V
ENCODING 86
SWIDTH 583 0
DWIDTH 19 0
BBX 19 24 2 -1
BITMAP
38000003F4
BD00000FF8
FF40002FFC
FF8000BFFC
BFD001FFF8
BFD007FFF0
BFE00BFFD0
BFE01FFF40
BFF03FFE00
BFF0BFF800
BFF1FFF000
7FF7FFD000
7FFFFF8000
3FFFFF0000
3FFFFD0000
3FFFF80000
2FFFF00000
1FFFE00000
1FFFC00000
0FFF000000
07FF000000
07FE000000
01F8000000
0010000000
ENDCHAR
STARTCHAR W
ENCODING 87
SWIDTH 994 0
DWIDTH 32 0
BBX 34 23 0 0
BITMAP
000900000000002C00
002F40000000007F00
007FD000190000BF80
00BFF0003F4001FFC0
01FFE000BFC002FFD0
02FFD001FFE003FFD0
03FFC003FFD007FF80
07FF800BFFD00BFF40
0BFF401FFFC01FFF00
0FFF003FFFC02FFD00
0FFE00BFFF803FFC00
1FFD00FFFF40BFF800
2FFC02FFFF40FFF400
2FFC0BFFFF42FFE000
3FF82FFFFF4BFFD000
3FF8BFFFFFAFFF8000
7FFAFFFFFFFFFF4000
3FFFFFFC7FFFFE0000
2FFFFFE03FFFFC0000
1FFFFF801FFFF40000
0BFFFD000BFFE00000
02FFE40003FF800000
006A400001FD000000
ENDCHAR
STARTCHAR X
ENCODING 88
SWIDTH 623 0
DWIDTH 20 0
BBX 23 24 -1 -1
BITMAP
00A400000040
01FE00000BE0
01FF80007FF4
01FFE001FFF8
01FFF80BFFF8
00FFFD7FFFF0
007FFFFFFF90
002FFFFFFD00
000BFFFFE000
0003FFFF4000
0003FFFD0000
000BFFF40000
003FFFFC0000
00BFFFFE0000
02FFFFFF4000
0BFFFBFFC000
1FFFC2FFF000
3FFE00FFF400
7FFC007FF800
7FF4003FFC00
7FD0001FF800
7FC0000FF400
2F800002E000
0E0000000000
ENDCHAR
STARTCHAR Y
ENCODING 89
SWIDTH 493 0
DWIDTH 16 0
BBX 19 25 1 -1
BITMAP
0400000600
3E00002F80
3FD000FFE0
3FF002FFF4
3FF00BFFF0
3FF41FFFC0
2FF83FFF00
2FF8BFFD00
1FFEFFF400
1FFFFFD000
0FFFFF8000
07FFFF0000
03FFFD0000
01FFFC0000
00FFF40000
02FFE00000
07FFC00000
0BFF800000
1FFF000000
2FFD000000
7FFC000000
BFF4000000
BFE0000000
3FD0000000
0B80000000
ENDCHAR
STARTCHAR Z
ENCODING 90
SWIDTH 664 0
DWIDTH 21 0
BBX 24 25 -1 -2
BITMAP
000ABFAAAA90
001FFFFFFFF0
001FFFFFFFF8
000FFFFFFFFD
000BFFFFFFFC
0002A95FFFF8
0000002FFFE0
000000BFFF40
000007FFFC00
00002FFFF000
0001FFFFC000
000BFFFE0000
002FFFF80000
01FFFFD00000
0BFFFE000000
1FFFF4000000
3FFF8001BD00
3FFE006FFE40
7FFF6FFFFFC0
7FFFFFFFFF80
3FFFFFFFFD00
1FFFFFFF9000
0BFFFFA40000
02BFE4000000
001400000000
ENDCHAR
STARTCHAR bracketleft
ENCODING 91
SWIDTH 387 0
DWIDTH 12 0
BBX 24 34 -1 -5
BITMAP
000006AABA90
0002FFFFFFF8
0002FFFFFFFE
0002FFFFFFFE
0002FFFFFE94
0003FF400000
0003FE000000
0007FD000000
000BFC000000
000BFC000000
000FF8000000
001FF4000000
002FF0000000
003FF0000000
003FE0000000
007FD0000000
00BFC0000000
00FFC0000000
01FF80000000
02FF40000000
02FF40000000
03FF00000000
07FE00000000
0BFD00000000
0FFC00000000
1FF800000000
2FF400000000
3FF000000000
3FE155400000
7FFFFFE00000
FFFFFFF80000
BFFFFFF80000
7FFFFFE00000
3FA550000000
ENDCHAR
STARTCHAR backslash
ENCODING 92
SWIDTH 352 0
DWIDTH 11 0
BBX 8 25 2 -1
BITMAP
9000
F800
FE00
FF40
BF40
BF80
7F80
7F80
3FC0
2FC0
2FD0
1FD0
1FE0
1FE0
0FF0
0BF4
0BF4
07F8
07F8
07F8
07FC
07FC
03FD
02FC
00A4
ENDCHAR
STARTCHAR bracketright
ENCODING 93
SWIDTH 403 0
DWIDTH 13 0
BBX 23 34 -9 -5
BITMAP
000056BFFE40
0001FFFFFFD0
0001FFFFFFF4
0001FFFFFFF0
0000BFFAFFF0
000025003FE0
000000007FD0
000000007FD0
00000000BFC0
00000000FF80
00000001FF80
00000002FF40
00000002FF00
00000003FE00
00000007FE00
00000007FD00
0000000BFC00
0000000FF800
0000001FF400
0000002FF400
0000003FF000
0000007FE000
000000BFE000
000000BFD000
000000FFC000
000001FF8000
000002FF4000
000003FF0000
00015BFE0000
5ABFFFFD0000
FFFFFFFC0000
BFFFFFF80000
7FFFFFE00000
3FA550000000
ENDCHAR
STARTCHAR asciicircum
ENCODING 94
SWIDTH 518 0
DWIDTH 17 0
BBX 15 19 0 5
BITMAP
00001900
00003F40
00007FC0
0000BFD0
0002FFD0
0003FFE0
000BFFF0
001FFFF0
003FFFF0
00BFDFF4
01FF8FF4
07FF0BF4
0FFD0BF4
2FF80BF4
BFF007F8
FFD003F8
BF4001F8
7D0000B4
04000000
ENDCHAR
STARTCHAR underscore
ENCODING 95
SWIDTH 708 0
DWIDTH 23 0
BBX 26 5 -3 -1
BITMAP
556AAAABEA9400
FFFFFFFFFFFE00
BFFFFFFFFFFFD0
7FFFFFFFFFFF90
1FEA9555555000
ENDCHAR
STARTCHAR grave
ENCODING 96
SWIDTH 754 0
DWIDTH 24 0
BBX 10 10 9 14
BITMAP
090000
2F4000
7FE000
BFF800
7FFE00
0BFF80
02FFD0
00BFE0
001FD0
000280
ENDCHAR
STARTCHAR a
ENCODING 97
SWIDTH 581 0
DWIDTH 19 0
BBX 20 20 -1 -1
BITMAP
0000079000
00000FF800
00003FF800
0006FFFC00
000FFFFC00
002FFFFD00
007FFFFE00
00BFF7FE00
00FFD2FF00
01FF81FF90
03FF45FFF9
07FFFFFFFD
0FFFFFFFF4
1FFBFFFFD0
2FF2FEBFE0
7FD0003FE0
BFC001FFD0
7FC000FFC0
2F4000BE00
0400001400
ENDCHAR
STARTCHAR b
ENCODING 98
SWIDTH 573 0
DWIDTH 18 0
BBX 19 21 -1 -1
BITMAP
0000154000
006BFFF800
1BFFFFFF40
7FFFFFFFC0
FFFFE9BFD0
7FFD01FFD0
2FBE0BFFC0
063FBFFF40
007FFFFD00
007FFFF800
00BFFFFD00
00FFFFFF40
01FF901BD0
02FF000FF0
03FE007FF4
07FD07FFF4
0BFEBFFFE0
0FFFFFFF80
0BFFFFF900
07FFFF9000
0196A00000
ENDCHAR
STARTCHAR c
ENCODING 99
SWIDTH 513 0
DWIDTH 16 0
BBX 16 20 0 -1
BITMAP
000002E0
00002FF8
0002FFFE
001FFFFE
00BFFFFC
03FFFFE0
0FFFF800
2FFFC000
7FFD0000
FFE00000
FF800000
FF400000
BF000000
BF400000
7FFA9550
2FFFFFF4
0FFFFFFC
02FFFFF8
005BFFE0
00001400
ENDCHAR
STARTCHAR d
ENCODING 100
SWIDTH 497 0
DWIDTH 16 0
BBX 16 20 0 -1
BITMAP
0E400000
1FF90000
0FFFD000
1FFFF800
1FFFFE00
1FC6FFC0
0FD02FF0
0FD007F8
0FD001FC
0FD000FD
0FD002FD
1FD01FFD
2FD1FFF8
3FEFFFE0
7FFFFF80
7FFFFD00
7FFFE000
7FF90000
2F900000
04000000
ENDCHAR
STARTCHAR e
ENCODING 101
SWIDTH 521 0
DWIDTH 17 0
BBX 18 20 0 -1
BITMAP
000016BF40
001AFFFFD0
06FFFFFFD0
0FFFFFFF80
0FFFFFA400
0BFFA40000
07FD000000
03FFAB8000
07FFFFE000
0BFFFFF400
1FFFFFE000
2FFBEA0000
7FE0000000
BFD0001000
BFD55AF800
BFFFFFFE00
7FFFFFFE00
3FFFFFF800
1FFFFE9000
0155000000
ENDCHAR
STARTCHAR f
ENCODING 102
SWIDTH 455 0
DWIDTH 15 0
BBX 20 21 -1 -1
BITMAP
0000000550
00001AFFF4
0006FFFFFD
01BFFFFFFE
07FFFFFEA9
0BFFF94000
07FFD00000
01FFC00000
007F800000
00BF400000
2EFFEBF800
7FFFFFFD00
BFFFFFFC00
7FFFFFE400
1FFE940000
0FF0000000
1FE0000000
2FD0000000
1FD0000000
0BC0000000
0140000000
ENDCHAR
STARTCHAR g
ENCODING 103
SWIDTH 652 0
DWIDTH 21 0
BBX 22 20 0 -1
BITMAP
000000B80000
000007FF4000
00007FFF8000
0002FFFF8000
000BFFFE0000
003FFFE00000
00FFFE000000
03FFF4010000
0FFF801F8000
2FFE003FF800
3FF8003FFF40
BFE0001FFFD0
FFC0000FFFF0
BF4005BFFFF0
BFAAFFFFFFD0
7FFFFFFFFE40
3FFFFFFFE400
1FFFFFE90000
07FFE9000000
001000000000
ENDCHAR
STARTCHAR h
ENCODING 104
SWIDTH 582 0
DWIDTH 19 0
BBX 19 21 -1 -1
BITMAP
0000000140
00100003C0
00B40007D0
00F80007F0
01FE0007F8
02FF000FFC
02FF000BFC
02FF000FFC
02FE000FFC
03FE001FF8
07FD01BFF8
07FEAFFFF4
0FFFFFFFF0
0FFFFFFFE0
1FFFFFFFD0
2FFFE4FFC0
3FFE00FFC0
7FF800FFC0
2FF400BF80
1FE0003E00
0540000000
ENDCHAR
STARTCHAR i
ENCODING 105
SWIDTH 320 0
DWIDTH 10 0
BBX 8 20 1 -1
BITMAP
00B4
02F4
03FC
07FC
0BFD
0BFD
0FFC
0FF8
1FF4
2FF0
3FF0
3FE0
3FE0
3FD0
7FD0
3FD0
2FE0
1FE0
0FD0
0500
ENDCHAR
STARTCHAR j
ENCODING 106
SWIDTH 534 0
DWIDTH 17 0
BBX 23 19 -1 0
BITMAP
00055AAAAA40
01BFFFFFFFD0
07FFFFFFFFF0
07FFFFFFFFF4
03FFEAFF9690
01A401FF0000
000002FE0000
000002FE0000
000003FD0000
000007FC0000
00000BF80000
00000FF80000
00001FF40000
00003FF00000
7E41BFD00000
BFFFFFC00000
BFFFFF400000
3FFFFD000000
1ABFE4000000
ENDCHAR
STARTCHAR k
ENCODING 107
SWIDTH 645 0
DWIDTH 21 0
BBX 21 20 0 -1
BITMAP
001F40000000
003FD000B400
007FE007FD00
00FFE02FFF00
01FFC1FFFE00
02FF8BFFF800
03FF6FFFD000
07FFFFFE0000
0BFFFFF40000
0FFFFFD00000
1FFFFF000000
2FFFFF400000
3FFFFFD00000
3FFFBFFFAA00
7FFD1FFFFFC0
BFF807FFFFC0
7FF000BFFF80
3FD00006BE00
2F8000000000
050000000000
ENDCHAR
STARTCHAR l
ENCODING 108
SWIDTH 533 0
DWIDTH 17 0
BBX 17 21 0 -1
BITMAP
0010000000
007E000000
00BFC00000
00FFD00000
01FF800000
02FF400000
03FF000000
07FE000000
0BFD000000
0FFC000000
1FF8000000
2FF4000000
3FE0000000
7FD0000000
BFD0050000
BFEBFFE400
BFFFFFFF00
7FFFFFFF40
2FFFFFFF40
1FFF955500
0154000000
ENDCHAR
STARTCHAR m
ENCODING 109
SWIDTH 814 0
DWIDTH 26 0
BBX 26 21 0 -1
BITMAP
00004000000000
0003E000002900
000BFD00007F40
001FFE0000FFC0
003FFF4007FFE0
00BFFF401FFFE0
00FFFF407FFFD0
02FFFF46FFFFD0
03FFFFFFFFFFC0
07FFFFFFFFFFC0
0FFFFFFFFEFFC0
1FFEFFFFF4FF80
2FF8BFFF81FF80
7FF42FF401FF40
BFF0000002FF40
BFD0000002FF00
BFC0000002FE00
BF40000002FD00
7F00000001F800
3E000000009000
18000000000000
ENDCHAR
STARTCHAR n
ENCODING 110
SWIDTH 564 0
DWIDTH 18 0
BBX 20 19 -1 0
BITMAP
00038001D0
0007F402F8
000FFC03FE
001FFD07FE
003FFD0BFD
007FFC0BFC
00BFF80FF8
01FFF40FF4
02FFF81FF4
07FFF42FF0
0BFFF47FF0
1FFFF8BFF0
2FFFFAFFE0
7FFEFFFFD0
7FF8FFFF80
7FF07FFF00
2FE02FFD00
1FD00BF800
0B80019000
ENDCHAR
STARTCHAR o
ENCODING 111
SWIDTH 628 0
DWIDTH 20 0
BBX 19 21 0 -1
BITMAP
0000009000
000006F400
00002FFD00
0000BFFF00
0003FFFE00
000FFFFE00
007FFFFF00
01FFFFBF80
03FFD03FC0
0BFF402FE0
1FFD000FF0
3FF40007F4
7FE00007F8
BFC0000BFC
BF80007FFC
BF955BFFF8
BFFFFFFFF0
3FFFFFFF80
1FFFFFF900
07FFFE8000
0055400000
ENDCHAR
STARTCHAR p
ENCODING 112
SWIDTH 524 0
DWIDTH 17 0
BBX 17 21 1 -1
BITMAP
0000550000
000BFFE000
007FFFFC00
00FFFFFE00
02FFFFFF00
03FFFFFF40
07FD01BF80
1FF806FF80
3FF5BFFF80
BFFFFFFF40
FFFFFFFE00
FFFFFFF400
FFFFFE4000
7FFE500000
7FC0000000
BFC0000000
BFC0000000
FF80000000
FF80000000
7F00000000
1500000000
ENDCHAR
STARTCHAR q
ENCODING 113
SWIDTH 625 0
DWIDTH 20 0
BBX 19 22 0 -2
BITMAP
0000044000
00001FE400
00001FFD00
00003FFF00
0000BFFF40
0007FFFFD0
001FFFFFE0
00BFFE0FF4
02FFF407F8
0BFF8002FC
2FFE1502FC
7FF83FC7FC
BFE02FEFFC
FF800FFFF8
FF400BFFF4
FE06BFFFD0
FFBFFFFF80
BFFFFFFFC0
7FFFFFBFD0
0BFFE41FE0
0054000FE0
0000000280
ENDCHAR
STARTCHAR r
ENCODING 114
SWIDTH 541 0
DWIDTH 17 0
BBX 18 21 0 -1
BITMAP
0000040000
0000BE0000
0002FF8000
000BFFE000
001FFFF400
017FFFFC00
07FFDBFD00
0BFF43FE00
0FFD07FE00
0FFDBFFE00
1FFFFFFC00
2FFFFFF400
2FFFFE4000
3FFFE40000
3FFF800000
7FFFF40000
BFFFFFE500
BF9FFFFFC0
7F42FFFFD0
2F002FFFD0
040001BF80
ENDCHAR
STARTCHAR s
ENCODING 115
SWIDTH 463 0
DWIDTH 15 0
BBX 19 21 0 -1
BITMAP
0000005400
00006FFF80
001BFFFFD0
02FFFFFFF0
1FFFFFFFF4
7FFFE9A590
BFFF400000
BFFFE00000
7FFFFD0000
2FFFFE0000
016BFF4000
00006FC000
00000FD000
00002FD000
0001BFC000
001BFF8000
1AFFFF0000
1FFFF80000
1FFFE00000
1FFE000000
0550000000
ENDCHAR
STARTCHAR t
ENCODING 116
SWIDTH 479 0
DWIDTH 15 0
BBX 21 21 0 -1
BITMAP
000000015400
0001BAFFFE00
BFFFFFFFFF40
FFFFFFFFFF80
BFFFFFFFFE40
7FFFFF940000
1A97FE000000
0007FD000000
000BFC000000
001FF4000000
002FF0000000
003FE0000000
007FC0000000
00BF80000000
00FF40000000
00FF00000000
01FE00000000
00FE00000000
00BF40000000
007F80000000
000A00000000
ENDCHAR
STARTCHAR u
ENCODING 117
SWIDTH 584 0
DWIDTH 19 0
BBX 19 19 1 0
BITMAP
0000000380
00000003D0
0A00000BE0
1F40000BF0
2FC0000FF4
2FD0000FF4
3FE0001FF4
3FE0003FF0
7FD0007FE0
7FD001FFD0
7FC007FF80
7FD01FFF40
7FD1BFFE00
7FFFFFF400
2FFFFFE000
2FFFFF8000
1FFFFE0000
0BFFE40000
02FE400000
ENDCHAR
STARTCHAR v
ENCODING 118
SWIDTH 485 0
DWIDTH 16 0
BBX 16 21 2 -1
BITMAP
00000010
740000BD
FC0001FE
FE0007FE
BF400FFE
BF803FFD
BF80BFF4
BFC1FFE0
BFC2FF80
BFC7FF00
BFDFFD00
7FFFF400
7FFFF000
3FFFD000
3FFF8000
2FFF0000
1FFD0000
0FF80000
0BF80000
07F00000
00400000
ENDCHAR
STARTCHAR w
ENCODING 119
SWIDTH 825 0
DWIDTH 26 0
BBX 28 20 0 -1
BITMAP
002400000000B4
00BD00010000FC
01FF40078002FE
02FF401FD003FE
03FF003FF007FF
07FE007FF00BFD
0BFD00FFE00FFC
0FFC02FFE02FF8
1FF807FFD03FF0
1FF40FFFD07FE0
2FF02FFFC0FFD0
3FE07FFFC2FF80
3FE1FFFFCBFF40
7FEBFFFFFFFE00
7FFFFF8FFFFD00
2FFFFE0BFFF800
1FFFF403FFF000
0BFFD001FFD000
01F90000BF4000
00000000100000
ENDCHAR
STARTCHAR x
ENCODING 120
SWIDTH 506 0
DWIDTH 16 0
BBX 19 20 -1 -1
BITMAP
0190000050
02F80002F4
02FF001FF8
03FF80BFFC
02FFE7FFF8
00FFFFFFD0
007FFFFE00
001FFFF400
000FFFD000
002FFF4000
00BFFF8000
02FFFFD000
0BFFFFF000
1FFE2FF800
3FF80FFD00
7FE007FE00
7FC002FF00
7F4001FE00
3F0000BC00
1D00001000
ENDCHAR
STARTCHAR y
ENCODING 121
SWIDTH 400 0
DWIDTH 13 0
BBX 16 21 1 -1
BITMAP
00000050
3D0007F4
7F800FFC
3FC03FFD
3FD0BFF8
3FD1FFD0
2FE7FF80
2FFFFE00
1FFFFC00
0FFFF400
0BFFE000
02FFC000
02FF8000
07FF0000
0FFD0000
1FF80000
3FF40000
7FE00000
BFC00000
7F800000
1E000000
ENDCHAR
STARTCHAR z
ENCODING 122
SWIDTH 547 0
DWIDTH 18 0
BBX 20 21 -1 -2
BITMAP
002BFAAAA0
003FFFFFF8
003FFFFFFD
002FFFFFFD
000AA5FFFC
000002FFF4
00000FFF80
00007FFD00
0006FFF800
002FFFD000
00BFFF4000
07FFF80000
1FFFD00000
3FFE000A00
3FF806FF90
7FFABFFFE0
7FFFFFFFD0
2FFFFFFD00
1FFFFF9000
06FF900000
0050000000
ENDCHAR
STARTCHAR braceleft
ENCODING 123
SWIDTH 448 0
DWIDTH 14 0
BBX 26 34 0 -5
BITMAP
0000016AABA900
00002FFFFFFF40
00002FFFFFFFD0
00002FFFFFFFD0
00002FFFFFA940
00003FE4000000
00003FD0000000
00007FD0000000
0000BFC0000000
0000FF80000000
0000FF80000000
0002FF40000000
002FFF00000000
05FFFE00000000
3FFFF900000000
7FFF9000000000
7FFD0000000000
3FFF4000000000
0FFFF400000000
02FFF400000000
007FF400000000
007FF000000000
007FE000000000
00BFD000000000
00FFC000000000
01FF8000000000
02FF4000000000
03FF0000000000
07FE1554000000
0BFFFFFD000000
0FFFFFFF800000
0FFFFFFF800000
0BFFFFFE000000
07FA5500000000
ENDCHAR
STARTCHAR bar
ENCODING 124
SWIDTH 332 0
DWIDTH 11 0
BBX 11 25 0 -1
BITMAP
000040
0002E0
0003F0
0007F4
000BF8
000FF4
001FF0
002FE0
003FD0
007F80
00BF40
00FF00
01FE00
02FD00
03FC00
07F800
0BF800
0FF400
2FF000
3FD000
BFC000
FF8000
FF4000
BE0000
140000
ENDCHAR
STARTCHAR braceright
ENCODING 125
SWIDTH 481 0
DWIDTH 15 0
BBX 25 35 -10 -6
BITMAP
000016AFFF9000
0000BFFFFFF000
0000BFFFFFFC00
0000BFFFFFFC00
00003FFABFF800
000019001FF400
000000002FF000
000000002FF000
000000003FE000
000000007FD000
00000000BFD000
00000000FFC000
00000001FF8000
00000002FF8000
00000003FFE000
00000003FFFC00
00000000BFFF00
000000001FFF80
000000002FFF80
00000002FFFF80
0000001FFFFA00
0000002FFF9000
0000003FF90000
0000003FF00000
0000007FE00000
000000BFD00000
000000FFC00000
000001FF800000
000056FF400000
16AFFFFF000000
7FFFFFFE000000
3FFFFFFD000000
2FFFFFF4000000
1FE95400000000
04000000000000
ENDCHAR
STARTCHAR asciitilde
ENCODING 126
SWIDTH 581 0
DWIDTH 19 0
BBX 18 7 0 6
BITMAP
006A400590
07FFF42FD0
1FFFFDBFC0
3FFFFFFF40
BF83FFFD00
FE00BFF400
0000054000
ENDCHAR
STARTCHAR uni00A0
ENCODING 160
SWIDTH 370 0
DWIDTH 12 0
BBX 1 1 0 0
BITMAP
00
ENDCHAR
STARTCHAR exclamdown
ENCODING 161
SWIDTH 260 0
DWIDTH 8 0
BBX 9 25 -1 -1
BITMAP
001900
00BF40
00FFC0
01FFC0
01FF80
006A00
000000
000000
009000
02FC00
07FC00
0BFC00
0BFC00
0FF800
0FF800
1FF400
1FF000
2FE000
3FE000
7FE000
3FD000
3FC000
7F8000
2F4000
090000
ENDCHAR
STARTCHAR cent
ENCODING 162
SWIDTH 488 0
DWIDTH 16 0
BBX 15 25 0 -1
BITMAP
00000400
00002C00
00007E00
0000BF00
0000FF80
0001FFF4
0006FFFC
006FFFF8
01FFFFE0
07FFF900
1FFF8000
3FF90000
BFE00000
BF800000
BF000000
7F400000
3FE95540
2FFFFFE0
0BFFFFF4
01FFFFE0
01FFAA40
02FE0000
03FD0000
02FC0000
00600000
ENDCHAR
STARTCHAR sterling
ENCODING 163
SWIDTH 586 0
DWIDTH 19 0
BBX 20 19 -1 2
BITMAP
000005A910
00002FFFF8
0000BFFFFD
0002FFFFFE
0003FF96FD
0007FD0014
000FF80000
056FFFA400
1FFFFFFE00
1FFFFFFF40
0FFFFFFE00
07FFD50000
007F800000
00BF801A00
15FFAAFFC0
7FFFFFFFD0
3FFFFFFFD0
1FFFFFFF40
06AAA55000
ENDCHAR
STARTCHAR currency
ENCODING 164
SWIDTH 509 0
DWIDTH 16 0
BBX 16 16 0 1
BITMAP
0781B428
0BF7FEFD
0BFFFFFE
07FFFFFD
02FFFFE4
07FFFF80
0FFD7FC0
1FF42FD0
2FE1BFE0
3FFFFFE0
3FFFFFD0
3FFFFF80
7FFFFFC0
BF552FC0
BD001F80
3C000600
ENDCHAR
STARTCHAR yen
ENCODING 165
SWIDTH 563 0
DWIDTH 18 0
BBX 19 20 0 0
BITMAP
00E4000B80
01FE002FF0
00FF00BFF4
00FF42FFE0
00FF47FF80
00BF8FFE00
00BFEFFC00
007FFFF000
003FFFD000
16BFFFF900
7FFFFFFF40
7FFFFFFFC0
3FFFFFFE40
1FBFF80000
007FE00000
00BFD00000
01FF800000
02FF400000
01FE000000
00BD000000
ENDCHAR
STARTCHAR brokenbar
ENCODING 166
SWIDTH 301 0
DWIDTH 10 0
BBX 11 25 -1 -1
BITMAP
000050
0000F0
0001F8
0003FC
0007FC
0007FC
000FF4
001FF0
002FE0
003FD0
002FC0
001B40
000000
000000
004000
02F400
07FC00
0BF800
0FF400
2FF000
3FE000
7FC000
7FC000
3F4000
050000
ENDCHAR
STARTCHAR section
ENCODING 167
SWIDTH 630 0
DWIDTH 20 0
BBX 20 29 0 -3
BITMAP
0000000040
00001AFFE4
001BFFFFFC
01FFFFFFFE
03FFFFFFFD
03FFFFEAF8
07FFE40000
07FFE40000
03FFFE4000
01FFFFF400
00BFFFFE00
02FFFFFFC0
0BFFFFFFE0
1FFFFABFF8
2FF9001FFC
2FF800BFFC
1FFFBFFFF4
0BFFFFFFE0
02FFFFFF80
007FFFFE00
001BFFFF80
00007FFFC0
00000BFFD0
05005BFFD0
2FFFFFFFD0
7FFFFFFFC0
7FFFFFFF40
2FFFFF9400
0BFE940000
ENDCHAR
STARTCHAR dieresis
ENCODING 168
SWIDTH 754 0
DWIDTH 24 0
BBX 14 6 7 18
BITMAP
05000500
7F403F80
BFD07FE0
FFE07FE0
BF807FD0
2A000A00
ENDCHAR
STARTCHAR copyright
ENCODING 169
SWIDTH 614 0
DWIDTH 20 0
BBX 20 20 0 3
BITMAP
00005FE000
0007FFFD00
002FFE5B80
00BF9007E0
02FE00A6F4
07F80BFCF8
0BF0BFF8BC
1FD2FF90BD
2F8BF8007D
3F5F80007D
7F1E00007D
7E1E0000BD
7F1FE500FC
3F0BFF83F8
2F42FF8FF0
1F80152FC0
07E002FF00
02FFAFFC00
006FFFD000
0001A90000
ENDCHAR
STARTCHAR ordfeminine
ENCODING 170
SWIDTH 454 0
DWIDTH 15 0
BBX 15 15 0 6
BITMAP
00014000
0003F800
001FFC00
00FFFD00
02FFFD00
03FFFE00
0BFFFF40
0FFDFFE0
2FFFFFF4
3FFFFFE0
BFFFFFC0
FF9AFFC0
FF41FF80
7E00BE00
14001400
ENDCHAR
STARTCHAR guillemotleft
ENCODING 171
SWIDTH 566 0
DWIDTH 18 0
BBX 18 15 -1 -1
BITMAP
0000500090
0002F402F0
000BF40BF0
002FF06FF0
01FFD1FFD0
1BFF5BFF40
7FFD7FF800
7FE07FE000
3FD07FD000
2FF82FF400
0BFE0FFD00
02FF42FF00
00BF80BF40
001BC01B80
0001400140
ENDCHAR
STARTCHAR logicalnot
ENCODING 172
SWIDTH 698 0
DWIDTH 22 0
BBX 20 11 0 0
BITMAP
056AAAEA90
BFFFFFFFF8
BFFFFFFFFF
7FFFFFFFFF
2FEA9557FE
04000003FD
0000000BFC
0000000FF8
0000001FF0
0000001FF0
0000000BD0
ENDCHAR
STARTCHAR sfthyphen
ENCODING 173
SWIDTH 608 0
DWIDTH 19 0
BBX 17 5 1 6
BITMAP
15AABEA400
FFFFFFFD00
FFFFFFFF40
FFFFFFFE00
7FA9554000
ENDCHAR
STARTCHAR registered
ENCODING 174
SWIDTH 624 0
DWIDTH 20 0
BBX 19 21 1 3
BITMAP
0000010000
00016FD000
001FFFF800
007FF96F00
01FF410BC0
07F80F87E0
0FF03FE2F0
2FD1BFF1F4
3F87F5F5F8
7F0BD6F4F8
BE0FFFF0F8
FD1FFF80F8
FC2FF401F8
FD3FF902F4
BD3EFFEBF0
7E3C2FFFD0
3F1402FF40
1F9007FD00
07FEBFF400
00BFFF8000
0006A40000
ENDCHAR
STARTCHAR macron
ENCODING 175
SWIDTH 754 0
DWIDTH 24 0
BBX 12 5 8 19
BITMAP
156AA4
7FFFFC
BFFFFE
BFFFFC
7E9A60
ENDCHAR
STARTCHAR degree
ENCODING 176
SWIDTH 284 0
DWIDTH 9 0
BBX 10 10 2 16
BITMAP
001A00
007F40
01FF40
0BFFC0
1FFFD0
3F8BE0
7FEFF0
7FFFF0
3FFF80
1BE900
ENDCHAR
STARTCHAR plusminus
ENCODING 177
SWIDTH 559 0
DWIDTH 18 0
BBX 19 23 -1 -1
BITMAP
0000078000
00001FD000
00002FF000
00003FE000
00007FE000
0000BFE000
015AFFFE80
0BFFFFFFF4
07FFFFFFFC
07FFFFFFE4
02FBFF9400
0002FF4000
0003FF0000
0003FE0000
0007FD0000
0002F80000
0000500000
0055555000
6FFFFFFD00
BFFFFFFF40
BFFFFFFF80
7FFFFEA500
1940000000
ENDCHAR
STARTCHAR twosuperior
ENCODING 178
SWIDTH 386 0
DWIDTH 12 0
BBX 12 12 2 11
BITMAP
1AA900
7FFF80
BFFFE0
7FFFF0
15FFF0
07FFC0
1FFE00
7FF9A8
BFFFFE
BFFFFF
7FFFF9
1AA500
ENDCHAR
STARTCHAR threesuperior
ENCODING 179
SWIDTH 366 0
DWIDTH 12 0
BBX 11 12 2 11
BITMAP
05AA80
7FFFE0
BFFFF0
BFFFF0
6FFFD0
07FF80
03FFE0
00BFF4
0BFFF8
0FFFF4
0FFFD0
06A900
ENDCHAR
STARTCHAR acute
ENCODING 180
SWIDTH 754 0
DWIDTH 24 0
BBX 10 10 9 14
BITMAP
000600
001F80
00BFD0
02FFE0
0BFFD0
2FFE00
7FF800
BFE000
7F4000
280000
ENDCHAR
STARTCHAR mu
ENCODING 181
SWIDTH 569 0
DWIDTH 18 0
BBX 19 21 -1 -4
BITMAP
00000001D0
00000001F0
01E00002F4
01F80003F8
02FC0007FC
02FD0007F8
03FD000FF4
03FC001FF4
07FC007FE0
0BFC01FFD0
0FFC07FF80
0FFDBFFE00
1FFFFFF800
2FFFFFF000
2FFFFFC000
3FFFFE0000
3FEFE00000
7FC0000000
7F80000000
7F00000000
0500000000
ENDCHAR
STARTCHAR paragraph
ENCODING 182
SWIDTH 729 0
DWIDTH 23 0
BBX 24 25 2 -1
BITMAP
00000056BF40
0001ABFFFFE0
006FFFFFFFF8
07FFFFFFFFFD
2FFFFFFFFFF8
BFFFFFF9FF40
FFFFAFF1FF00
FFF82FE2FE00
FFD03FD2FE00
BFD07FD3FD00
7FF8BFC7FC00
2FFFFFC7FC00
0BFFFFEBF800
01FFFFFFF800
001BFFFFFD00
0002FFFFFF00
0003FEBFF900
0007FE3FE000
0007FD7FD000
0007FC7FC000
0007F87FD000
000FF43FE000
001FF43FF000
000FE01FF000
000180069000
ENDCHAR
STARTCHAR periodcentered
ENCODING 183
SWIDTH 226 0
DWIDTH 7 0
BBX 6 6 1 9
BITMAP
0100
3F80
7FE0
BFE0
7FD0
2A00
ENDCHAR
STARTCHAR cedilla
ENCODING 184
SWIDTH 754 0
DWIDTH 24 0
BBX 12 12 8 -10
BITMAP
006500
01FE00
03FC00
07F800
0BFF80
02FFE0
005BF8
0002FD
156BFD
7FFFFC
3FFFE0
0AA900
ENDCHAR
STARTCHAR onesuperior
ENCODING 185
SWIDTH 206 0
DWIDTH 7 0
BBX 6 12 2 11
BITMAP
1900
3F40
3FC0
2FC0
2FD0
2FD0
3FC0
7F80
BF40
FF00
FE00
6800
ENDCHAR
STARTCHAR ordmasculine
ENCODING 186
SWIDTH 445 0
DWIDTH 14 0
BBX 14 15 0 6
BITMAP
0000A400
0007FD00
001FFE00
00BFFE00
02FFFF00
0BFFFF40
1FFFFFC0
3FF87FD0
7FE03FE0
BFD5FFF0
BFFFFFE0
BFFFFFD0
3FFFFF40
1FFFF400
01A90000
ENDCHAR
STARTCHAR guillemotright
ENCODING 187
SWIDTH 595 0
DWIDTH 19 0
BBX 18 15 -1 -1
BITMAP
0900090000
1F800F8000
0FF40BF400
0BFE07FE00
02FF82FF80
00BFD0BFD0
002FE01FF0
007FF02FF0
01FFF1FFF0
0BFF57FF90
2FF91FFD00
7FD07FE000
BF407F4000
BD007D0000
2400240000
ENDCHAR
STARTCHAR onequarter
ENCODING 188
SWIDTH 705 0
DWIDTH 23 0
BBX 21 25 1 -1
BITMAP
000000010000
0A00000B4000
1FC0002F8000
1FE000BF8000
0FE001FF8000
0BF007FF4000
0FF00BFD0000
1FE01FF80000
2FD07FE00000
3FC1FF800000
7F83FF000000
7F4BFD009000
2A1FF401F400
007FE782F800
01FF8FD3F800
07FF0FE3FD00
0FFD0BFFFF00
2FF40BFFFF40
7FD007FFFE00
BF8001BFE000
FF80002FC000
FF40003F8000
FF40003FD000
BE00002FC000
140000064000
ENDCHAR
STARTCHAR onehalf
ENCODING 189
SWIDTH 750 0
DWIDTH 24 0
BBX 22 25 1 -1
BITMAP
000000010000
0A00000B4000
1FC0002F8000
1FE000BF8000
0FE001FF8000
0BF007FF4000
0FF00BFD0000
1FE01FF80000
2FD07FE00000
3FC1FF800000
7F83FF000000
7F4BFD000000
2A1FF4594000
007FE3FFF400
01FF87FFFC00
07FF07FFFE00
0FFD019FFE00
2FF4002FF800
7FD000FFE000
BF8003FF9640
FF8007FFFFC0
FF400BFFFFD0
FF4007FFFF80
BE0002FE9400
140000000000
ENDCHAR
STARTCHAR threequarters
ENCODING 190
SWIDTH 818 0
DWIDTH 26 0
BBX 23 24 2 -1
BITMAP
2FFFD0000780
7FFFF0001F80
BFFFF4007FC0
7FFFE001FF80
0FFF4007FF40
0FFF401FFD00
07FFC03FF400
29FFD0FFD000
7FFFD3FF4000
BFFF8FFD0000
7FF93FF00240
0540BFC00BC0
0002FF6D0FD0
000FFD7F1FD0
003FF07F6FE0
00FFC07FFFF4
03FF007FFFF4
0BFC007FFFE0
1FF4001BFE00
2FE00003F800
3FD00007F400
3FD00007FC00
3F800003F800
050000019000
ENDCHAR
STARTCHAR questiondown
ENCODING 191
SWIDTH 556 0
DWIDTH 18 0
BBX 18 25 -2 -1
BITMAP
0000000140
0000000BD0
0000003FE0
0000003FF0
0000003FF0
0000001FE0
0000000140
0000000000
0000005400
000002FE00
00000BFD00
0000BFFC00
0007FFF400
006FFFD000
02FFFF4000
1FFFF80000
3FFFD00000
7FFE000000
BFF8000500
FFFFEAAF80
BFFFFFFFC0
FFFFFFFFC0
BFFFFFFF40
16FFFFFE00
0016BFF400
ENDCHAR
STARTCHAR Agrave
ENCODING 192
SWIDTH 702 0
DWIDTH 22 0
BBX 24 35 -1 -1
BITMAP
000000900000
000002F40000
000007FE0000
00000BFF8000
000007FFE000
000000BFF800
0000002FFD00
0000000BFE00
00000001FD00
000000002800
000000000000
000000390000
000000BFD000
000002FFE000
00001BFFE000
0001FFFFF000
0003FFFFF000
000BFFFFF400
000FFFFFF400
002FFFAFF800
003FFE2FFC00
007FFC1FFC00
00FFF40FFE90
01FFE01FFFF8
03FFFFFFFFFD
07FFFFFFFFF8
0BFFFFFFFFD0
1FFEBFFFFF80
2FFC3FE6FFC0
3FF80001FFC0
7FF4001BFFC0
7FF0001FFF80
3FE00007FE00
1F800002F800
000000004000
ENDCHAR
STARTCHAR Aacute
ENCODING 193
SWIDTH 702 0
DWIDTH 22 0
BBX 24 36 -1 -1
BITMAP
000000002400
00000001FD00
00000007FE00
0000001FFF00
0000007FFE00
000001FFF400
000007FFC000
000007FE0000
000003F80000
000002900000
000000000000
000000000000
000000390000
000000BFD000
000002FFE000
00001BFFE000
0001FFFFF000
0003FFFFF000
000BFFFFF400
000FFFFFF400
002FFFAFF800
003FFE2FFC00
007FFC1FFC00
00FFF40FFE90
01FFE01FFFF8
03FFFFFFFFFD
07FFFFFFFFF8
0BFFFFFFFFD0
1FFEBFFFFF80
2FFC3FE6FFC0
3FF80001FFC0
7FF4001BFFC0
7FF0001FFF80
3FE00007FE00
1F800002F800
000000004000
ENDCHAR
STARTCHAR Acircumflex
ENCODING 194
SWIDTH 702 0
DWIDTH 22 0
BBX 24 34 -1 -1
BITMAP
0000000A0000
0000007FD000
000002FFF800
00000BFFFE00
00002FFAFF80
00007FE0BFD0
00007FC03FD0
00002E000B80
000004000100
000000000000
000000390000
000000BFD000
000002FFE000
00001BFFE000
0001FFFFF000
0003FFFFF000
000BFFFFF400
000FFFFFF400
002FFFAFF800
003FFE2FFC00
007FFC1FFC00
00FFF40FFE90
01FFE01FFFF8
03FFFFFFFFFD
07FFFFFFFFF8
0BFFFFFFFFD0
1FFEBFFFFF80
2FFC3FE6FFC0
3FF80001FFC0
7FF4001BFFC0
7FF0001FFF80
3FE00007FE00
1F800002F800
000000004000
ENDCHAR
STARTCHAR Atilde
ENCODING 195
SWIDTH 702 0
DWIDTH 22 0
BBX 25 32 -1 -1
BITMAP
000000AF806A00
000003FFF4FF40
00000BFFFEFE00
00001FFFFFFC00
00003FD7FFF400
00003F41BF9000
00000000000000
00000000000000
00000039000000
000000BFD00000
000002FFE00000
00001BFFE00000
0001FFFFF00000
0003FFFFF00000
000BFFFFF40000
000FFFFFF40000
002FFFAFF80000
003FFE2FFC0000
007FFC1FFC0000
00FFF40FFE9000
01FFE01FFFF800
03FFFFFFFFFD00
07FFFFFFFFF800
0BFFFFFFFFD000
1FFEBFFFFF8000
2FFC3FE6FFC000
3FF80001FFC000
7FF4001BFFC000
7FF0001FFF8000
3FE00007FE0000
1F800002F80000
00000000400000
ENDCHAR
STARTCHAR Adieresis
ENCODING 196
SWIDTH 702 0
DWIDTH 22 0
BBX 24 32 -1 -1
BITMAP
000001000500
00002F802FD0
00007FE03FF0
0000BFF03FF0
00007FD02FE0
00002A000640
000000000000
000000000000
000000390000
000000BFD000
000002FFE000
00001BFFE000
0001FFFFF000
0003FFFFF000
000BFFFFF400
000FFFFFF400
002FFFAFF800
003FFE2FFC00
007FFC1FFC00
00FFF40FFE90
01FFE01FFFF8
03FFFFFFFFFD
07FFFFFFFFF8
0BFFFFFFFFD0
1FFEBFFFFF80
2FFC3FE6FFC0
3FF80001FFC0
7FF4001BFFC0
7FF0001FFF80
3FE00007FE00
1F800002F800
000000004000
ENDCHAR
STARTCHAR Aring
ENCODING 197
SWIDTH 702 0
DWIDTH 22 0
BBX 24 32 -1 -1
BITMAP
000000007400
00000002FC00
0000000BFC00
0000002FFD00
000000BFFF00
000001FE7F40
000002FEBF80
000002FFFF80
000002FFFE00
000000FFE400
000002FFE000
00001BFFE000
0001FFFFF000
0003FFFFF000
000BFFFFF400
000FFFFFF400
002FFFAFF800
003FFE2FFC00
007FFC1FFC00
00FFF40FFE90
01FFE01FFFF8
03FFFFFFFFFD
07FFFFFFFFF8
0BFFFFFFFFD0
1FFEBFFFFF80
2FFC3FE6FFC0
3FF80001FFC0
7FF4001BFFC0
7FF0001FFF80
3FE00007FE00
1F800002F800
000000004000
ENDCHAR
STARTCHAR AE
ENCODING 198
SWIDTH 1153 0
DWIDTH 37 0
BBX 40 24 -2 -1
BITMAP
00000002900000016BF0
0000000BFD0006BFFFFD
0000002FFE01BFFFFFFE
000005BFFE1FFFFFFFFD
00002FFFFE3FFFFFFFE4
00007FFFFE2FFFFFE940
0000FFFFFE2FFFF90000
0002FFFFFE1FFE000000
0007FFEBFF0BFE555000
000FFF87FF0BFFFFF400
001FFF07FF0FFFFFFE00
003FFD07FFAFFFFFFF00
00BFF407FFFFFFFFFD00
01FFFBFFFFFFFFFFD000
03FFFFFFFFFFF1440000
0BFFFFFFFFFFD0000000
1FFEBFFFFFFFC0000500
2FFC7FE6FFFF956AFF40
7FF40002FFFFFFFFFFD0
BFE0001BFFFFFFFFFFE0
FFD0002FFFFFFFFFFFC0
BFC0000FFDBFFFFFFE00
7E00000BE42FFFFE9000
00000001000050000000
ENDCHAR
STARTCHAR Ccedilla
ENCODING 199
SWIDTH 611 0
DWIDTH 20 0
BBX 19 33 0 -10
BITMAP
0000001F40
000001FFE0
00001BFFF8
0000BFFFFC
000BFFFFF8
007FFFFFF0
01FFFFFE80
07FFFFD000
1FFFFD0000
3FFFE40000
7FFF400000
FFFC000000
FFF0000000
FFD0000000
BF80000000
BFC0000000
7FE4000000
3FFFAA9500
2FFFFFFFC0
0BFFFFFFE0
02FFFFFFF0
007FFFFFD0
000FFFFA40
003FC00000
007F800000
00BFE40000
007FFE0000
001BFF8000
00006FC000
0001BFD000
07FFFFC000
07FFFF4000
01FFE40000
ENDCHAR
STARTCHAR Egrave
ENCODING 200
SWIDTH 626 0
DWIDTH 20 0
BBX 21 36 0 -1
BITMAP
000018000000
00007E000000
0000FFD00000
0001FFF40000
0000BFFD0000
00001FFF0000
000007FFC000
000001FFC000
0000002FC000
000000064000
000000000000
000000000000
0000005AFD00
00016FFFFF40
006FFFFFFF80
07FFFFFFFF40
0BFFFFFFFD00
0BFFFFFA5000
07FFFE800000
03FF80000000
02FFD5540000
02FFFFFD0000
03FFFFFF8000
07FFFFFFD000
0FFFFFFF4000
1FFFFFF80000
3FFD15000000
7FF800000000
BFF000014000
BFE55ABFE000
BFFFFFFFF800
7FFFFFFFFC00
3FFFFFFFF400
2FFFFFFF9000
07FFFFA40000
001500000000
ENDCHAR
STARTCHAR Eacute
ENCODING 201
SWIDTH 626 0
DWIDTH 20 0
BBX 21 35 0 -1
BITMAP
000000018000
00000007E000
0000002FF400
000000BFF800
000002FFF400
00000BFF8000
00001FFE0000
00002FF80000
00001FD00000
00000A000000
000000000000
0000005AFD00
00016FFFFF40
006FFFFFFF80
07FFFFFFFF40
0BFFFFFFFD00
0BFFFFFA5000
07FFFE800000
03FF80000000
02FFD5540000
02FFFFFD0000
03FFFFFF8000
07FFFFFFD000
0FFFFFFF4000
1FFFFFF80000
3FFD15000000
7FF800000000
BFF000014000
BFE55ABFE000
BFFFFFFFF800
7FFFFFFFFC00
3FFFFFFFF400
2FFFFFFF9000
07FFFFA40000
001500000000
ENDCHAR
STARTCHAR Ecircumflex
ENCODING 202
SWIDTH 626 0
DWIDTH 20 0
BBX 21 34 0 -1
BITMAP
000000A40000
000007FD0000
00001FFF8000
00007FFFE000
0002FFAFF800
0007FE0BFE00
0007FC02FD00
0002E000B800
000040001000
000000000000
0000005AFD00
00016FFFFF40
006FFFFFFF80
07FFFFFFFF40
0BFFFFFFFD00
0BFFFFFA5000
07FFFE800000
03FF80000000
02FFD5540000
02FFFFFD0000
03FFFFFF8000
07FFFFFFD000
0FFFFFFF4000
1FFFFFF80000
3FFD15000000
7FF800000000
BFF000014000
BFE55ABFE000
BFFFFFFFF800
7FFFFFFFFC00
3FFFFFFFF400
2FFFFFFF9000
07FFFFA40000
001500000000
ENDCHAR
STARTCHAR Edieresis
ENCODING 203
SWIDTH 626 0
DWIDTH 20 0
BBX 21 32 0 -1
BITMAP
000010005000
0002F802FD00
0007FE02FF00
0007FF03FF40
0007FD02FE00
0002A4006400
000000000000
000000000000
0000005AFD00
00016FFFFF40
006FFFFFFF80
07FFFFFFFF40
0BFFFFFFFD00
0BFFFFFA5000
07FFFE800000
03FF80000000
02FFD5540000
02FFFFFD0000
03FFFFFF8000
07FFFFFFD000
0FFFFFFF4000
1FFFFFF80000
3FFD15000000
7FF800000000
BFF000014000
BFE55ABFE000
BFFFFFFFF800
7FFFFFFFFC00
3FFFFFFFF400
2FFFFFFF9000
07FFFFA40000
001500000000
ENDCHAR
STARTCHAR Igrave
ENCODING 204
SWIDTH 515 0
DWIDTH 17 0
BBX 22 37 -1 -1
BITMAP
000018000000
00007E000000
0000FFD00000
0001FFF40000
0000BFFD0000
00001FFF0000
000007FFC000
000001FFC000
0000002FC000
000000064000
000000000000
000000000000
000000054000
0016BFFFFE00
007FFFFFFF80
007FFFFFFFE0
007FFFFFFFD0
002FFFFEA500
000A5FF80000
00001FF80000
00002FF40000
00003FF00000
00007FE00000
00007FD00000
0000FFC00000
0001FF800000
0002FF800000
0003FF400000
000BFE000000
000FFD000000
001FFE400000
6AFFFFF40000
FFFFFFFD0000
FFFFFFFC0000
BFFFFFF40000
7FE550000000
140000000000
ENDCHAR
STARTCHAR Iacute
ENCODING 205
SWIDTH 515 0
DWIDTH 17 0
BBX 22 37 -1 -1
BITMAP
000000000900
000000002F40
00000001FFC0
00000007FFD0
0000000FFF80
0000003FFD00
000000FFF400
000000FFD000
000000FE0000
000000640000
000000000000
000000000000
000000054000
0016BFFFFE00
007FFFFFFF80
007FFFFFFFE0
007FFFFFFFD0
002FFFFEA500
000A5FF80000
00001FF80000
00002FF40000
00003FF00000
00007FE00000
00007FD00000
0000FFC00000
0001FF800000
0002FF800000
0003FF400000
000BFE000000
000FFD000000
001FFE400000
6AFFFFF40000
FFFFFFFD0000
FFFFFFFC0000
BFFFFFF40000
7FE550000000
140000000000
ENDCHAR
STARTCHAR Icircumflex
ENCODING 206
SWIDTH 515 0
DWIDTH 17 0
BBX 22 35 -1 -1
BITMAP
000000190000
000000BF8000
000007FFE000
00001FFFFC00
00007FFBFF40
0000FFD1FFC0
0000BF40BF80
00007D001F00
000014000500
000000000000
000000054000
0016BFFFFE00
007FFFFFFF80
007FFFFFFFE0
007FFFFFFFD0
002FFFFEA500
000A5FF80000
00001FF80000
00002FF40000
00003FF00000
00007FE00000
00007FD00000
0000FFC00000
0001FF800000
0002FF800000
0003FF400000
000BFE000000
000FFD000000
001FFE400000
6AFFFFF40000
FFFFFFFD0000
FFFFFFFC0000
BFFFFFF40000
7FE550000000
140000000000
ENDCHAR
STARTCHAR Idieresis
ENCODING 207
SWIDTH 515 0
DWIDTH 17 0
BBX 22 33 -1 -1
BITMAP
000005000500
00007F403F80
0000BFD07FE0
0000FFE07FE0
0000BF807FD0
00002A000A00
000000000000
000000000000
000000054000
0016BFFFFE00
007FFFFFFF80
007FFFFFFFE0
007FFFFFFFD0
002FFFFEA500
000A5FF80000
00001FF80000
00002FF40000
00003FF00000
00007FE00000
00007FD00000
0000FFC00000
0001FF800000
0002FF800000
0003FF400000
000BFE000000
000FFD000000
001FFE400000
6AFFFFF40000
FFFFFFFD0000
FFFFFFFC0000
BFFFFFF40000
7FE550000000
140000000000
ENDCHAR
STARTCHAR Eth
ENCODING 208
SWIDTH 656 0
DWIDTH 21 0
BBX 22 24 -1 -1
BITMAP
001E40000000
002FF4000000
002FFF900000
001FFFF80000
003FFFFF4000
003FEFFFD000
002FC6FFF800
002FD01FFD00
006FE402FF40
2BFFFE00BF80
7FFFFF802FC0
7FFFFF802FD0
7FFFFF407FD0
3FFFE002FFD0
147FD02FFFC0
00BFD1FFFF40
00BFEFFFFD00
00FFFFFFF400
01FFFFFF8000
01FFFFF90000
00FFFF900000
00BFF8000000
007E40000000
000400000000
ENDCHAR
STARTCHAR Ntilde
ENCODING 209
SWIDTH 684 0
DWIDTH 22 0
BBX 25 32 -1 0
BITMAP
0000006F901A80
000001FFF87FC0
000003FFFEFF40
00000BFFFFFE00
00001FF1FFFC00
00001F907FE000
00000000000000
00000000000000
00000000010000
0000A400078000
0000FE000BE400
0002FF800FFC00
0003FFD01FFE00
000BFFE02FFE00
000FFFD02FFD00
001FFFD03FF800
003FFFC03FF400
007FFF807FF000
00FFFF80BFF000
01FFFF80FFE000
03FFFF41FFE000
07FFFF42FFD000
0FFFFF47FFD000
1FFFFF9FFFC000
2FFFFFFFFF8000
7FFF7FFFFF4000
7FFE2FFFFF0000
3FFC0FFFFD0000
2FF807FFF80000
1FF401FFE00000
0BF0007F800000
02D00004000000
ENDCHAR
STARTCHAR Ograve
ENCODING 210
SWIDTH 744 0
DWIDTH 24 0
BBX 23 35 0 -1
BITMAP
000000180000
0000007F4000
000000BFD000
000000FFF400
000000BFFD00
0000001FFF00
00000007FFC0
00000000FFC0
000000002FC0
000000000640
0000000A4000
0000006FC000
000001FFF000
000007FFF800
00002FFFFC00
0000FFFFF400
0003FFFFF800
001FFFFFFC00
007FFFFFFE00
00FFFE52FF40
02FFF801FF80
07FFD000BFD0
0FFF40003FE0
2FFE00002FF0
3FFC00001FF4
7FF400002FF8
BFE00000BFF8
BFD0001BFFF8
BFE55AFFFFF4
BFFFFFFFFFE0
3FFFFFFFFF40
1FFFFFFFFD00
0BFFFFFF9000
01BFFFA40000
000450000000
ENDCHAR
STARTCHAR Oacute
ENCODING 211
SWIDTH 744 0
DWIDTH 24 0
BBX 23 35 0 -1
BITMAP
000000009000
00000007F400
0000001FF800
0000007FFC00
000001FFF800
000007FFD000
00001FFF0000
00001FF80000
00000FE00000
00000A400000
0000000A4000
0000006FC000
000001FFF000
000007FFF800
00002FFFFC00
0000FFFFF400
0003FFFFF800
001FFFFFFC00
007FFFFFFE00
00FFFE52FF40
02FFF801FF80
07FFD000BFD0
0FFF40003FE0
2FFE00002FF0
3FFC00001FF4
7FF400002FF8
BFE00000BFF8
BFD0001BFFF8
BFE55AFFFFF4
BFFFFFFFFFE0
3FFFFFFFFF40
1FFFFFFFFD00
0BFFFFFF9000
01BFFFA40000
000450000000
ENDCHAR
STARTCHAR Ocircumflex
ENCODING 212
SWIDTH 744 0
DWIDTH 24 0
BBX 23 34 0 -1
BITMAP
000000064000
0000002FE000
000000BFFD00
000003FFFF40
00001FFEFFD0
00003FF47FF0
00002FE01FE0
00000F4007D0
000005000140
0000000A4000
0000006FC000
000001FFF000
000007FFF800
00002FFFFC00
0000FFFFF400
0003FFFFF800
001FFFFFFC00
007FFFFFFE00
00FFFE52FF40
02FFF801FF80
07FFD000BFD0
0FFF40003FE0
2FFE00002FF0
3FFC00001FF4
7FF400002FF8
BFE00000BFF8
BFD0001BFFF8
BFE55AFFFFF4
BFFFFFFFFFE0
3FFFFFFFFF40
1FFFFFFFFD00
0BFFFFFF9000
01BFFFA40000
000450000000
ENDCHAR
STARTCHAR Otilde
ENCODING 213
SWIDTH 744 0
DWIDTH 24 0
BBX 24 32 0 -1
BITMAP
000001BE406A
000007FFE1FF
00000FFFFBFD
00002FFFFFF8
00007FC7FFF0
00007E41FF80
000000000000
0000000A4000
0000006FC000
000001FFF000
000007FFF800
00002FFFFC00
0000FFFFF400
0003FFFFF800
001FFFFFFC00
007FFFFFFE00
00FFFE52FF40
02FFF801FF80
07FFD000BFD0
0FFF40003FE0
2FFE00002FF0
3FFC00001FF4
7FF400002FF8
BFE00000BFF8
BFD0001BFFF8
BFE55AFFFFF4
BFFFFFFFFFE0
3FFFFFFFFF40
1FFFFFFFFD00
0BFFFFFF9000
01BFFFA40000
000450000000
ENDCHAR
STARTCHAR Odieresis
ENCODING 214
SWIDTH 744 0
DWIDTH 24 0
BBX 23 32 0 -1
BITMAP
000001000500
00002FC02FE0
00003FF02FF4
00007FF02FF4
00003FD02FE0
00001A400240
000000000000
0000000A4000
0000006FC000
000001FFF000
000007FFF800
00002FFFFC00
0000FFFFF400
0003FFFFF800
001FFFFFFC00
007FFFFFFE00
00FFFE52FF40
02FFF801FF80
07FFD000BFD0
0FFF40003FE0
2FFE00002FF0
3FFC00001FF4
7FF400002FF8
BFE00000BFF8
BFD0001BFFF8
BFE55AFFFFF4
BFFFFFFFFFE0
3FFFFFFFFF40
1FFFFFFFFD00
0BFFFFFF9000
01BFFFA40000
000450000000
ENDCHAR
STARTCHAR multiply
ENCODING 215
SWIDTH 490 0
DWIDTH 16 0
BBX 16 17 0 0
BITMAP
05000010
0BD000B8
0BF407FD
0BFD2FFD
07FFFFF8
02FFFFD0
00BFFE00
007FF400
01FFE000
07FFF400
1FFFFC00
3FF6FE00
BFD0FF40
FF407F80
FD003F80
BC001F40
74000500
ENDCHAR
STARTCHAR Oslash
ENCODING 216
SWIDTH 744 0
DWIDTH 24 0
BBX 23 28 0 -4
BITMAP
0000000A4010
0000006FC1F4
000001FFF7F4
000007FFFFF8
00002FFFFFF4
0000FFFFFFF4
0003FFFFFFF0
001FFFFFFFC0
007FFFFFFF40
00FFFE7FFF40
02FFF8BFFF80
07FFD1FFFFD0
0FFF47FFBFE0
2FFE0BFF2FF0
3FFC2FFD1FF4
7FF4BFF42FF8
BFE1FFE0BFF8
BFD7FF9BFFF8
BFFFFFFFFFF4
BFFFFFFFFFE0
3FFFFFFFFF40
1FFFFFFFFD00
0BFFFFFF9000
03FFFFA40000
03FF54000000
03FF40000000
02FF00000000
00BD00000000
ENDCHAR
STARTCHAR Ugrave
ENCODING 217
SWIDTH 695 0
DWIDTH 22 0
BBX 22 32 1 0
BITMAP
000240000000
000BE0000000
001FF8000000
002FFE000000
001FFF800000
0002FFE00000
0000BFF80000
00001FF80000
000007F80000
000000600E00
000000001F80
020000002FC0
0F8000003FD0
1FD000003FE0
2FF000007FF0
2FF400007FF0
2FF80000BFE0
3FF80001FFE0
7FF80002FFD0
7FF40007FFC0
7FF0000FFF80
7FF0003FFF00
7FF001FFFD00
7FF40BFFFC00
7FF9BFFFE400
7FFFFFFF8000
2FFFFFFF0000
1FFFFFFD0000
0FFFFFF40000
0BFFFF800000
02FFF9000000
006A90000000
ENDCHAR
STARTCHAR Uacute
ENCODING 218
SWIDTH 695 0
DWIDTH 22 0
BBX 22 34 1 0
BITMAP
000000009000
00000002F400
0000001FFC00
0000007FFD00
000000FFF800
000003FFD000
00000FFF4000
00000FFD0000
00000FE00000
000006400000
000000000000
000000000E00
000000001F80
020000002FC0
0F8000003FD0
1FD000003FE0
2FF000007FF0
2FF400007FF0
2FF80000BFE0
3FF80001FFE0
7FF80002FFD0
7FF40007FFC0
7FF0000FFF80
7FF0003FFF00
7FF001FFFD00
7FF40BFFFC00
7FF9BFFFE400
7FFFFFFF8000
2FFFFFFF0000
1FFFFFFD0000
0FFFFFF40000
0BFFFF800000
02FFF9000000
006A90000000
ENDCHAR
STARTCHAR Ucircumflex
ENCODING 219
SWIDTH 695 0
DWIDTH 22 0
BBX 22 33 1 0
BITMAP
000001900000
00000BF80000
00007FFE0000
0001FFFFC000
0007FFBFF400
000FFD1FFC00
000BF40BF800
0007D001F000
000140005000
000000000000
000000000E00
000000001F80
020000002FC0
0F8000003FD0
1FD000003FE0
2FF000007FF0
2FF400007FF0
2FF80000BFE0
3FF80001FFE0
7FF80002FFD0
7FF40007FFC0
7FF0000FFF80
7FF0003FFF00
7FF001FFFD00
7FF40BFFFC00
7FF9BFFFE400
7FFFFFFF8000
2FFFFFFF0000
1FFFFFFD0000
0FFFFFF40000
0BFFFF800000
02FFF9000000
006A90000000
ENDCHAR
STARTCHAR Udieresis
ENCODING 220
SWIDTH 695 0
DWIDTH 22 0
BBX 22 31 1 0
BITMAP
000050014000
000BF007F800
000FFC0BFD00
000FFD0BFE00
000FF807FC00
000690009000
000000000000
000000000000
000000000E00
000000001F80
020000002FC0
0F8000003FD0
1FD000003FE0
2FF000007FF0
2FF400007FF0
2FF80000BFE0
3FF80001FFE0
7FF80002FFD0
7FF40007FFC0
7FF0000FFF80
7FF0003FFF00
7FF001FFFD00
7FF40BFFFC00
7FF9BFFFE400
7FFFFFFF8000
2FFFFFFF0000
1FFFFFFD0000
0FFFFFF40000
0BFFFF800000
02FFF9000000
006A90000000
ENDCHAR
STARTCHAR Yacute
ENCODING 221
SWIDTH 493 0
DWIDTH 16 0
BBX 19 37 1 -1
BITMAP
0000000A00
0000002F80
000000FFC0
000003FFD0
00000FFF80
00002FFE00
0000BFF400
0000FFD000
0000BE4000
0000640000
0000000000
0000000000
0400000600
3E00002F80
3FD000FFE0
3FF002FFF4
3FF00BFFF0
3FF41FFFC0
2FF83FFF00
2FF8BFFD00
1FFEFFF400
1FFFFFD000
0FFFFF8000
07FFFF0000
03FFFD0000
01FFFC0000
00FFF40000
02FFE00000
07FFC00000
0BFF800000
1FFF000000
2FFD000000
7FFC000000
BFF4000000
BFE0000000
3FD0000000
0B80000000
ENDCHAR
STARTCHAR Thorn
ENCODING 222
SWIDTH 680 0
DWIDTH 22 0
BBX 21 24 1 -1
BITMAP
00B400000000
03F800000000
03FC00000000
0BFD00000000
0BFFFEA50000
1FFFFFFFD000
1FFFFFFFFC00
1FFFFFFFFF00
2FFEAAAFFF40
3FFC000FFF80
7FF8001FFFC0
BFF400BFFF80
BFF407FFFF40
BFF07FFFFD00
FFFFFFFFE000
FFFFFFFE4000
FFFFFFE40000
FFFFF9000000
FFFE40000000
BFE000000000
7FE000000000
3FE000000000
2FC000000000
040000000000
ENDCHAR
STARTCHAR germandbls
ENCODING 223
SWIDTH 931 0
DWIDTH 30 0
BBX 34 21 0 -1
BITMAP
000000540000015000
00006FFF8001BFFE00
001BFFFFD06FFFFF40
02FFFFFFFBFFFFFF80
1FFFFFFFFFFFFFFFD0
7FFFE9A6FFFFA69640
BFFF4002FFFC000000
BFFFE002FFFF800000
7FFFFD02FFFFF00000
2FFFFE00BFFFF80000
016BFF4005AFFD0000
00006FC00001BF0000
00000FD000003F4000
00002FD00000BF4000
0001BFC00006FF0000
001BFF80006FFE0000
1AFFFF006BFFFC0000
1FFFF8007FFFE00000
1FFFE0007FFF800000
1FFE00007FF8000000
055000001540000000
ENDCHAR
STARTCHAR agrave
ENCODING 224
SWIDTH 581 0
DWIDTH 19 0
BBX 20 31 -1 -1
BITMAP
0000190000
00003F4000
0000BFE000
0000FFF400
00007FFD00
00001FFF40
000002FFD0
000000BFD0
0000002FD0
0000000680
0000000000
0000079000
00000FF800
00003FF800
0006FFFC00
000FFFFC00
002FFFFD00
007FFFFE00
00BFF7FE00
00FFD2FF00
01FF81FF90
03FF45FFF9
07FFFFFFFD
0FFFFFFFF4
1FFBFFFFD0
2FF2FEBFE0
7FD0003FE0
BFC001FFD0
7FC000FFC0
2F4000BE00
0400001400
ENDCHAR
STARTCHAR aacute
ENCODING 225
SWIDTH 581 0
DWIDTH 19 0
BBX 20 31 -1 -1
BITMAP
0000000A00
0000002F80
000000FFC0
000002FFD0
00000BFFC0
00002FFE00
0000BFF400
0000BFD000
0000BF4000
0000240000
0000000000
0000079000
00000FF800
00003FF800
0006FFFC00
000FFFFC00
002FFFFD00
007FFFFE00
00BFF7FE00
00FFD2FF00
01FF81FF90
03FF45FFF9
07FFFFFFFD
0FFFFFFFF4
1FFBFFFFD0
2FF2FEBFE0
7FD0003FE0
BFC001FFD0
7FC000FFC0
2F4000BE00
0400001400
ENDCHAR
STARTCHAR acircumflex
ENCODING 226
SWIDTH 581 0
DWIDTH 19 0
BBX 20 30 -1 -1
BITMAP
0000019000
00000BF800
00003FFF00
0001FFFFC0
0007FF7FF4
000FFD1FFC
000BF407F8
0007D001F4
0001400050
0000000000
0000079000
00000FF800
00003FF800
0006FFFC00
000FFFFC00
002FFFFD00
007FFFFE00
00BFF7FE00
00FFD2FF00
01FF81FF90
03FF45FFF9
07FFFFFFFD
0FFFFFFFF4
1FFBFFFFD0
2FF2FEBFE0
7FD0003FE0
BFC001FFD0
7FC000FFC0
2F4000BE00
0400001400
ENDCHAR
STARTCHAR atilde
ENCODING 227
SWIDTH 581 0
DWIDTH 19 0
BBX 21 28 -1 -1
BITMAP
00002FE01A80
0001FFFC7FC0
0003FFFFFF80
000BFFFFFF00
000FF5FFFD00
001F907FE400
000000000000
000000000000
000007900000
00000FF80000
00003FF80000
0006FFFC0000
000FFFFC0000
002FFFFD0000
007FFFFE0000
00BFF7FE0000
00FFD2FF0000
01FF81FF9000
03FF45FFF900
07FFFFFFFD00
0FFFFFFFF400
1FFBFFFFD000
2FF2FEBFE000
7FD0003FE000
BFC001FFD000
7FC000FFC000
2F4000BE0000
040000140000
ENDCHAR
STARTCHAR adieresis
ENCODING 228
SWIDTH 581 0
DWIDTH 19 0
BBX 21 29 -1 -1
BITMAP
000010005000
0002F802FD00
0007FE02FF40
0007FF02FF40
0007FD02FE00
0002A4006400
000000000000
000000000000
000000000000
000007900000
00000FF80000
00003FF80000
0006FFFC0000
000FFFFC0000
002FFFFD0000
007FFFFE0000
00BFF7FE0000
00FFD2FF0000
01FF81FF9000
03FF45FFF900
07FFFFFFFD00
0FFFFFFFF400
1FFBFFFFD000
2FF2FEBFE000
7FD0003FE000
BFC001FFD000
7FC000FFC000
2F4000BE0000
040000140000
ENDCHAR
STARTCHAR aring
ENCODING 229
SWIDTH 581 0
DWIDTH 19 0
BBX 20 28 -1 -1
BITMAP
0000000500
0000002F00
000000BF40
000002FF80
00000BFFC0
00001FEFE0
00003F8BF0
00007FFFF0
00007FFFE0
00002FFF80
00002FFC00
0006FFFC00
000FFFFC00
002FFFFD00
007FFFFE00
00BFF7FE00
00FFD2FF00
01FF81FF90
03FF45FFF9
07FFFFFFFD
0FFFFFFFF4
1FFBFFFFD0
2FF2FEBFE0
7FD0003FE0
BFC001FFD0
7FC000FFC0
2F4000BE00
0400001400
ENDCHAR
STARTCHAR ae
ENCODING 230
SWIDTH 948 0
DWIDTH 30 0
BBX 33 20 -2 -1
BITMAP
00000079000016BE00
000001FF401BFFFFC0
000007FF47FFFFFFC0
0000BFFF5FFFFFFF40
0002FFFF5FFFFF9400
0007FFFF4FFFA40000
000FFFFF8BFC000000
002FFDFF87FEAF4000
007FF4FF8BFFFFD000
00FFD0BFDFFFFFF000
02FF81BFFFFFFFD000
07FFFFFFFFFBA90000
0BFFFFFFFFD0000000
1FFBFFFFFFC0001000
3FF2FEBFFF955BF400
BFD0007FFFFFFFFD00
FF8002FFFFFFFFFD00
FF4002FFBFFFFFF800
7E0001FE2FFFFE4000
100000500155000000
ENDCHAR
STARTCHAR ccedilla
ENCODING 231
SWIDTH 513 0
DWIDTH 16 0
BBX 16 28 0 -9
BITMAP
000002E0
00002FF8
0002FFFE
001FFFFE
00BFFFFC
03FFFFE0
0FFFF800
2FFFC000
7FFD0000
FFE00000
FF800000
FF400000
BF000000
BF400000
7FFA9550
2FFFFFF4
0FFFFFFC
02FFFFF8
006FFFE0
007F5400
00BF0000
00FFE000
007FF800
0006FE00
0000BF00
06AFFF00
0BFFFD00
02FFE400
ENDCHAR
STARTCHAR egrave
ENCODING 232
SWIDTH 521 0
DWIDTH 17 0
BBX 18 31 0 -1
BITMAP
0018000000
007F400000
00BFD00000
00FFF40000
00BFFD0000
001FFF4000
0007FFC000
0000FFC000
00002FC000
0000064000
0000000000
000016BF40
001AFFFFD0
06FFFFFFD0
0FFFFFFF80
0FFFFFA400
0BFFA40000
07FD000000
03FFAB8000
07FFFFE000
0BFFFFF400
1FFFFFE000
2FFBEA0000
7FE0000000
BFD0001000
BFD55AF800
BFFFFFFE00
7FFFFFFE00
3FFFFFF800
1FFFFE9000
0155000000
ENDCHAR
STARTCHAR eacute
ENCODING 233
SWIDTH 521 0
DWIDTH 17 0
BBX 18 31 0 -1
BITMAP
0000002400
000001FD00
000007FF00
00001FFF00
00007FFE00
0000FFF400
0003FFD000
0003FF4000
0003F80000
0001900000
0000000000
000016BF40
001AFFFFD0
06FFFFFFD0
0FFFFFFF80
0FFFFFA400
0BFFA40000
07FD000000
03FFAB8000
07FFFFE000
0BFFFFF400
1FFFFFE000
2FFBEA0000
7FE0000000
BFD0001000
BFD55AF800
BFFFFFFE00
7FFFFFFE00
3FFFFFF800
1FFFFE9000
0155000000
ENDCHAR
STARTCHAR ecircumflex
ENCODING 234
SWIDTH 521 0
DWIDTH 17 0
BBX 19 30 0 -1
BITMAP
0000068000
00002FF400
0000BFFD00
0002FFFF40
000BFEFFE0
002FF83FF4
001FE01FF0
000B8003D0
0001000040
0000000000
000016BF40
001AFFFFD0
06FFFFFFD0
0FFFFFFF80
0FFFFFA400
0BFFA40000
07FD000000
03FFAB8000
07FFFFE000
0BFFFFF400
1FFFFFE000
2FFBEA0000
7FE0000000
BFD0001000
BFD55AF800
BFFFFFFE00
7FFFFFFE00
3FFFFFF800
1FFFFE9000
0155000000
ENDCHAR
STARTCHAR edieresis
ENCODING 235
SWIDTH 521 0
DWIDTH 17 0
BBX 20 29 0 -1
BITMAP
0000400140
000BE00BF4
001FF80BFD
001FFC0BFD
001FF40BF8
000A900190
0000000000
0000000000
0000000000
000016BF40
001AFFFFD0
06FFFFFFD0
0FFFFFFF80
0FFFFFA400
0BFFA40000
07FD000000
03FFAB8000
07FFFFE000
0BFFFFF400
1FFFFFE000
2FFBEA0000
7FE0000000
BFD0001000
BFD55AF800
BFFFFFFE00
7FFFFFFE00
3FFFFFF800
1FFFFE9000
0155000000
ENDCHAR
STARTCHAR igrave
ENCODING 236
SWIDTH 320 0
DWIDTH 10 0
BBX 11 31 1 -1
BITMAP
028000
07E000
0FFC00
1FFF00
0BFFC0
02FFF0
007FF8
001FFC
0006F8
000064
000000
00B400
02F400
03FC00
07FC00
0BFD00
0BFD00
0FFC00
0FF800
1FF400
2FF000
3FF000
3FE000
3FE000
3FD000
7FD000
3FD000
2FE000
1FE000
0FD000
050000
ENDCHAR
STARTCHAR iacute
ENCODING 237
SWIDTH 320 0
DWIDTH 10 0
BBX 16 32 1 -1
BITMAP
00000060
000001FC
00000BFE
00002FFE
0000BFFD
0001FFF0
0007FF80
0007FE00
0007F400
00028000
00000000
00000000
00B40000
02F40000
03FC0000
07FC0000
0BFD0000
0BFD0000
0FFC0000
0FF80000
1FF40000
2FF00000
3FF00000
3FE00000
3FE00000
3FD00000
7FD00000
3FD00000
2FE00000
1FE00000
0FD00000
05000000
ENDCHAR
STARTCHAR icircumflex
ENCODING 238
SWIDTH 320 0
DWIDTH 10 0
BBX 14 30 1 -1
BITMAP
001A0000
007FD000
02FFF400
0BFFFD00
2FFAFF80
BFE0BFD0
7F803FD0
2E000B80
04000100
00000000
00B40000
02F40000
03FC0000
07FC0000
0BFD0000
0BFD0000
0FFC0000
0FF80000
1FF40000
2FF00000
3FF00000
3FE00000
3FE00000
3FD00000
7FD00000
3FD00000
2FE00000
1FE00000
0FD00000
05000000
ENDCHAR
STARTCHAR idieresis
ENCODING 239
SWIDTH 320 0
DWIDTH 10 0
BBX 14 29 1 -1
BITMAP
05000500
7F407F80
BFD07FE0
FFD07FE0
BF807FD0
6A000A00
00000000
00000000
00000000
00B40000
02F40000
03FC0000
07FC0000
0BFD0000
0BFD0000
0FFC0000
0FF80000
1FF40000
2FF00000
3FF00000
3FE00000
3FE00000
3FD00000
7FD00000
3FD00000
2FE00000
1FE00000
0FD00000
05000000
ENDCHAR
STARTCHAR eth
ENCODING 240
SWIDTH 541 0
DWIDTH 17 0
BBX 18 20 -1 -1
BITMAP
00B9000000
00FFD00000
00BFFE0000
00BFFFD000
00FEFFF400
00FD1BFD00
00BE01BF40
1BFFD02FC0
BFFFF40BD0
BFFFF40BE0
BFFFE01FE0
3AFE01BFE0
01FE0BFFC0
02FEBFFF40
03FFFFFD00
03FFFFE000
03FFFE4000
03FFE00000
01F9000000
0050000000
ENDCHAR
STARTCHAR ntilde
ENCODING 241
SWIDTH 564 0
DWIDTH 18 0
BBX 24 28 -1 0
BITMAP
000002BE00A8
00000FFFD3FD
00002FFFFBF8
00007FFFFFF0
0000FF4FFFD0
0000FD02FF40
000000000000
000000000000
000000000000
00038001D000
0007F402F800
000FFC03FE00
001FFD07FE00
003FFD0BFD00
007FFC0BFC00
00BFF80FF800
01FFF40FF400
02FFF81FF400
07FFF42FF000
0BFFF47FF000
1FFFF8BFF000
2FFFFAFFE000
7FFEFFFFD000
7FF8FFFF8000
7FF07FFF0000
2FE02FFD0000
1FD00BF80000
0B8001900000
ENDCHAR
STARTCHAR ograve
ENCODING 242
SWIDTH 628 0
DWIDTH 20 0
BBX 19 31 0 -1
BITMAP
0000090000
00002F8000
00007FE000
0000BFF800
00007FFE00
00000BFF80
000002FFE0
000000BFE0
0000001FE0
0000000280
0000009000
000006F400
00002FFD00
0000BFFF00
0003FFFE00
000FFFFE00
007FFFFF00
01FFFFBF80
03FFD03FC0
0BFF402FE0
1FFD000FF0
3FF40007F4
7FE00007F8
BFC0000BFC
BF80007FFC
BF955BFFF8
BFFFFFFFF0
3FFFFFFF80
1FFFFFF900
07FFFE8000
0055400000
ENDCHAR
STARTCHAR oacute
ENCODING 243
SWIDTH 628 0
DWIDTH 20 0
BBX 19 31 0 -1
BITMAP
0000000900
0000007F40
000001FF80
000007FFC0
00001FFF80
00003FFD00
0000FFF400
0000FFC000
0000FE0000
0000640000
0000009000
000006F400
00002FFD00
0000BFFF00
0003FFFE00
000FFFFE00
007FFFFF00
01FFFFBF80
03FFD03FC0
0BFF402FE0
1FFD000FF0
3FF40007F4
7FE00007F8
BFC0000BFC
BF80007FFC
BF955BFFF8
BFFFFFFFF0
3FFFFFFF80
1FFFFFF900
07FFFE8000
0055400000
ENDCHAR
STARTCHAR ocircumflex
ENCODING 244
SWIDTH 628 0
DWIDTH 20 0
BBX 20 30 0 -1
BITMAP
0000006400
000002FE00
00001FFF80
00007FFFF0
0001FFEFFD
0003FF47FF
0002FD02FE
0001F4007C
0000500014
0000009000
000006F400
00002FFD00
0000BFFF00
0003FFFE00
000FFFFE00
007FFFFF00
01FFFFBF80
03FFD03FC0
0BFF402FE0
1FFD000FF0
3FF40007F4
7FE00007F8
BFC0000BFC
BF80007FFC
BF955BFFF8
BFFFFFFFF0
3FFFFFFF80
1FFFFFF900
07FFFE8000
0055400000
ENDCHAR
STARTCHAR otilde
ENCODING 245
SWIDTH 628 0
DWIDTH 20 0
BBX 23 28 0 -1
BITMAP
00000AF802A0
00003FFF4FF4
0000BFFFEFE0
0001FFFFFFC0
0003FD3FFF40
0003F40BFD00
000000000000
000000900000
000006F40000
00002FFD0000
0000BFFF0000
0003FFFE0000
000FFFFE0000
007FFFFF0000
01FFFFBF8000
03FFD03FC000
0BFF402FE000
1FFD000FF000
3FF40007F400
7FE00007F800
BFC0000BFC00
BF80007FFC00
BF955BFFF800
BFFFFFFFF000
3FFFFFFF8000
1FFFFFF90000
07FFFE800000
005540000000
ENDCHAR
STARTCHAR odieresis
ENCODING 246
SWIDTH 628 0
DWIDTH 20 0
BBX 21 29 0 -1
BITMAP
000014001400
0001FD00FE00
0002FF41FF80
0003FF81FF80
0002FE01FF40
0000A8002800
000000000000
000000000000
000000900000
000006F40000
00002FFD0000
0000BFFF0000
0003FFFE0000
000FFFFE0000
007FFFFF0000
01FFFFBF8000
03FFD03FC000
0BFF402FE000
1FFD000FF000
3FF40007F400
7FE00007F800
BFC0000BFC00
BF80007FFC00
BF955BFFF800
BFFFFFFFF000
3FFFFFFF8000
1FFFFFF90000
07FFFE800000
005540000000
ENDCHAR
STARTCHAR divide
ENCODING 247
SWIDTH 559 0
DWIDTH 18 0
BBX 17 20 0 -1
BITMAP
0000640000
0001FD0000
0002FF4000
0002FF4000
0002FF0000
0001FE0000
0000000000
0005554000
6BFFFFFD00
BFFFFFFF40
BFFFFFFF80
7FFFFFA900
1A50000000
0004000000
002F900000
00BFE00000
00BFE00000
007FD00000
002F800000
0005000000
ENDCHAR
STARTCHAR oslash
ENCODING 248
SWIDTH 632 0
DWIDTH 20 0
BBX 19 24 0 -4
BITMAP
0000009014
000006F478
00002FFEFC
0000BFFFFC
0003FFFFFC
000FFFFFF8
007FFFFFE0
00FFFFFFC0
03FFE3FFD0
0BFF4FFFE0
1FFD2FFFF4
2FF47FD7F4
7FE1FF83F8
7FC7FE0BFC
BF8FFC7FFC
BFBFFFFFF8
BFFFFFFFF4
3FFFFFFFD0
1FFFFFFE00
07FFFF9000
07FE900000
07FC000000
03F8000000
01A0000000
ENDCHAR
STARTCHAR ugrave
ENCODING 249
SWIDTH 584 0
DWIDTH 19 0
BBX 19 30 1 0
BITMAP
0006000000
001F900000
003FF40000
003FFD0000
002FFF4000
0007FFC000
0001FFF000
00007FF000
00000BF000
0000019000
0000000000
0000000380
00000003D0
0A00000BE0
1F40000BF0
2FC0000FF4
2FD0000FF4
3FE0001FF4
3FE0003FF0
7FD0007FE0
7FD001FFD0
7FC007FF80
7FD01FFF40
7FD1BFFE00
7FFFFFF400
2FFFFFE000
2FFFFF8000
1FFFFE0000
0BFFE40000
02FE400000
ENDCHAR
STARTCHAR uacute
ENCODING 250
SWIDTH 584 0
DWIDTH 19 0
BBX 19 29 1 0
BITMAP
0000000A00
0000002F80
000000FFC0
000003FFD0
00000FFF80
00002FFE00
0000BFF400
0000FFD000
0000BE4000
0000640000
0000000380
00000003D0
0A00000BE0
1F40000BF0
2FC0000FF4
2FD0000FF4
3FE0001FF4
3FE0003FF0
7FD0007FE0
7FD001FFD0
7FC007FF80
7FD01FFF40
7FD1BFFE00
7FFFFFF400
2FFFFFE000
2FFFFF8000
1FFFFE0000
0BFFE40000
02FE400000
ENDCHAR
STARTCHAR ucircumflex
ENCODING 251
SWIDTH 584 0
DWIDTH 19 0
BBX 19 29 1 0
BITMAP
00000A4000
00007FE000
0001FFF800
0007FFFE00
002FFAFF80
007FF0BFE0
003FC02FD0
002E000B80
0004000100
0000000000
0000000380
00000003D0
0A00000BE0
1F40000BF0
2FC0000FF4
2FD0000FF4
3FE0001FF4
3FE0003FF0
7FD0007FE0
7FD001FFD0
7FC007FF80
7FD01FFF40
7FD1BFFE00
7FFFFFF400
2FFFFFE000
2FFFFF8000
1FFFFE0000
0BFFE40000
02FE400000
ENDCHAR
STARTCHAR udieresis
ENCODING 252
SWIDTH 584 0
DWIDTH 19 0
BBX 19 28 1 0
BITMAP
0001000500
002F802FD0
007FE02FF4
007FF02FF4
007FD02FE0
002A400640
0000000000
0000000000
0000000000
0000000380
00000003D0
0A00000BE0
1F40000BF0
2FC0000FF4
2FD0000FF4
3FE0001FF4
3FE0003FF0
7FD0007FE0
7FD001FFD0
7FC007FF80
7FD01FFF40
7FD1BFFE00
7FFFFFF400
2FFFFFE000
2FFFFF8000
1FFFFE0000
0BFFE40000
02FE400000
ENDCHAR
STARTCHAR yacute
ENCODING 253
SWIDTH 400 0
DWIDTH 13 0
BBX 17 33 1 -1
BITMAP
0000002800
000000BE00
000003FF00
00000FFF40
00003FFF00
0000BFF800
0002FFD000
0002FF4000
0002FD0000
0001900000
0000000000
0000000000
0000005000
3D0007F400
7F800FFC00
3FC03FFD00
3FD0BFF800
3FD1FFD000
2FE7FF8000
2FFFFE0000
1FFFFC0000
0FFFF40000
0BFFE00000
02FFC00000
02FF800000
07FF000000
0FFD000000
1FF8000000
3FF4000000
7FE0000000
BFC0000000
7F80000000
1E00000000
ENDCHAR
STARTCHAR thorn
ENCODING 254
SWIDTH 579 0
DWIDTH 19 0
BBX 18 20 1 0
BITMAP
0080000000
07D0000000
0BE0000000
0FF4000000
1FFFFE9000
2FFFFFFD00
2FFFFFFF80
3FFAAFFFD0
7FE000FFE0
7FE002FFE0
BFD01BFFD0
FFD1BFFF80
FFEBFFFD00
FFFFFFE000
FFFFF90000
FFFF900000
BFE4000000
BF80000000
7F80000000
2F40000000
ENDCHAR
STARTCHAR ydieresis
ENCODING 255
SWIDTH 400 0
DWIDTH 13 0
BBX 17 29 1 -1
BITMAP
0004001400
00FD00FF40
01FF40FFC0
02FF80FFC0
02FF00BF40
00A8001800
0000000000
0000000000
0000005000
3D0007F400
7F800FFC00
3FC03FFD00
3FD0BFF800
3FD1FFD000
2FE7FF8000
2FFFFE0000
1FFFFC0000
0FFFF40000
0BFFE00000
02FFC00000
02FF800000
07FF000000
0FFD000000
1FF8000000
3FF4000000
7FE0000000
BFC0000000
7F80000000
1E00000000
ENDCHAR
STARTCHAR dotlessi
ENCODING 305
SWIDTH 320 0
DWIDTH 10 0
BBX 8 20 1 -1
BITMAP
00B4
02F4
03FC
07FC
0BFD
0BFD
0FFC
0FF8
1FF4
2FF0
3FF0
3FE0
3FE0
3FD0
7FD0
3FD0
2FE0
1FE0
0FD0
0500
ENDCHAR
STARTCHAR Lslash
ENCODING 321
SWIDTH 632 0
DWIDTH 20 0
BBX 23 25 -3 -1
BITMAP
000010000000
00007E400000
0000BFD00000
0000FFF00000
0001FFE00000
0002FFD00000
0003FFC00000
0007FF800000
000BFFA40000
000FFFFF0000
01BFFFFF0000
1BFFFFF80000
FFFFFE400000
BFFFF4000000
7FFFF0000000
1AFFE0000000
01FFD0000000
02FFC0555400
02FFEBFFFE40
02FFFFFFFFF0
01FFFFFFFFF4
00FFFFFFFFF8
007FFFFFFFE4
002FFE500100
000150000000
ENDCHAR
STARTCHAR lslash
ENCODING 322
SWIDTH 533 0
DWIDTH 17 0
BBX 20 21 -3 -1
BITMAP
0000400000
0001F80000
0002FF0000
0003FF4000
0007FE0000
000BFD0000
000FFC0000
001FFE8000
002FFFF400
06FFFFF400
BFFFFE4000
FFFFD00000
BFFFC00000
2EFF400000
02FF401400
02FFAFFF90
02FFFFFFFC
01FFFFFFFD
00BFFFFFFD
007FFE5554
0005500000
ENDCHAR
STARTCHAR OE
ENCODING 338
SWIDTH 1212 0
DWIDTH 39 0
BBX 40 25 0 -1
BITMAP
0000000A400000000000
0000006FC00000056BE0
000001FFF00006BFFFFD
000007FFF802BFFFFFFE
00002FFFFC1FFFFFFFFD
0000FFFFF43FFFFFFFE4
0003FFFFF82FFFFFE900
001FFFFFFC2FFFF90000
007FFFFFFE1FFE000000
00FFFE52FF4BFE555000
02FFF801FF8BFFFFF400
07FFD000BFDFFFFFFE00
0FFF40003FFFFFFFFF00
2FFE00002FFFFFFFF900
3FFC00001FFFFFFFD000
7FF400002FFFF1440000
BFE00000BFFFD0000000
BFD0001BFFFF80001500
BFE55AFFFFFF956AFF40
BFFFFFFFFFFFFFFFFFD0
3FFFFFFFFFFFFFFFFFE0
1FFFFFFFFEFFFFFFFFC0
0BFFFFFF90BFFFFFFE00
01BFFFA4002FFFFE9000
00045000000050000000
ENDCHAR
STARTCHAR oe
ENCODING 339
SWIDTH 1010 0
DWIDTH 32 0
BBX 33 21 0 -1
BITMAP
000000900000000000
000006F4000016BE00
00002FFD001BFFFFC0
0000BFFF07FFFFFFC0
0007FFFE1FFFFFFF40
000FFFFE1FFFFF9400
007FFFFF0FFFA40000
01FFFBBF8BFC000000
03FFD03FC7FEAF4000
0BFF401FEBFFFFD000
1FFD000FFFFFFFF000
3FF40007FFFFFFD000
7FE00007FFFBA90000
BFC0000BFFD0000000
BF80007FFFC0001000
BF955BFFFF955BF400
BFFFFFFFFFFFFFFD00
3FFFFFFFFFFFFFFD00
1FFFFFF97FFFFFF800
07FFFF802FFFFE4000
005540000155000000
ENDCHAR
STARTCHAR Scaron
ENCODING 352
SWIDTH 576 0
DWIDTH 18 0
BBX 22 35 0 -1
BITMAP
000050001400
0001F400BD00
0003FD02FE00
0003FF4BFF00
0001FFEFF900
00003FFFE000
00000FFF8000
000002FE0000
000000640000
000000000000
000000055000
000006BFFF00
0001BFFFFF80
006FFFFFFFC0
06FFFFFFFFE0
1FFFFFFFFFE0
7FFFFE965540
7FFFE0000000
BFFFF9000000
BFFFFF800000
7FFFFFE00000
1BFFFFF00000
0056BFF80000
000006FD0000
000000FE0000
000002FF0000
000007FF0000
00007FFE0000
0007FFFC0000
0AFFFFF40000
0FFFFFD00000
0FFFFF400000
0FFFF4000000
0BFE40000000
015000000000
ENDCHAR
STARTCHAR scaron
ENCODING 353
SWIDTH 463 0
DWIDTH 15 0
BBX 19 32 0 -1
BITMAP
0020000900
00BD002F00
00FF40BF40
01FFD2FF80
007FFBFE00
001FFFF800
0007FFE000
0001FF4000
0000190000
0000000000
0000000000
0000005400
00006FFF80
001BFFFFD0
02FFFFFFF0
1FFFFFFFF4
7FFFE9A590
BFFF400000
BFFFE00000
7FFFFD0000
2FFFFE0000
016BFF4000
00006FC000
00000FD000
00002FD000
0001BFC000
001BFF8000
1AFFFF0000
1FFFF80000
1FFFE00000
1FFE000000
0550000000
ENDCHAR
STARTCHAR Ydieresis
ENCODING 376
SWIDTH 493 0
DWIDTH 16 0
BBX 19 33 1 -1
BITMAP
0001000500
002F802FD0
007FE02FF4
007FF02FF4
007FD02FE0
002A400640
0000000000
0000000000
0400000600
3E00002F80
3FD000FFE0
3FF002FFF4
3FF00BFFF0
3FF41FFFC0
2FF83FFF00
2FF8BFFD00
1FFEFFF400
1FFFFFD000
0FFFFF8000
07FFFF0000
03FFFD0000
01FFFC0000
00FFF40000
02FFE00000
07FFC00000
0BFF800000
1FFF000000
2FFD000000
7FFC000000
BFF4000000
BFE0000000
3FD0000000
0B80000000
ENDCHAR
STARTCHAR Zcaron
ENCODING 381
SWIDTH 664 0
DWIDTH 21 0
BBX 24 37 -1 -2
BITMAP
000000900024
000002F400BC
000003FD02FE
000007FF4BFE
000001FFEFF8
0000007FFFE0
0000001FFF80
00000002FD00
000000006400
000000000000
000000000000
000000000000
000ABFAAAA90
001FFFFFFFF0
001FFFFFFFF8
000FFFFFFFFD
000BFFFFFFFC
0002A95FFFF8
0000002FFFE0
000000BFFF40
000007FFFC00
00002FFFF000
0001FFFFC000
000BFFFE0000
002FFFF80000
01FFFFD00000
0BFFFE000000
1FFFF4000000
3FFF8001BD00
3FFE006FFE40
7FFF6FFFFFC0
7FFFFFFFFF80
3FFFFFFFFD00
1FFFFFFF9000
0BFFFFA40000
02BFE4000000
001400000000
ENDCHAR
STARTCHAR zcaron
ENCODING 382
SWIDTH 547 0
DWIDTH 18 0
BBX 21 33 -1 -2
BITMAP
000014000500
00007D002F40
0000FF40BF80
0000FFD2FFC0
00007FFBFE40
00000FFFF800
000003FFE000
000000BF8000
000000190000
000000000000
000000000000
000000000000
002BFAAAA000
003FFFFFF800
003FFFFFFD00
002FFFFFFD00
000AA5FFFC00
000002FFF400
00000FFF8000
00007FFD0000
0006FFF80000
002FFFD00000
00BFFF400000
07FFF8000000
1FFFD0000000
3FFE000A0000
3FF806FF9000
7FFABFFFE000
7FFFFFFFD000
2FFFFFFD0000
1FFFFF900000
06FF90000000
005000000000
ENDCHAR
STARTCHAR circumflex
ENCODING 710
SWIDTH 754 0
DWIDTH 24 0
BBX 14 9 7 16
BITMAP
000A0000
007FD000
02FFF800
0BFFFE00
2FFAFF80
7FE0BFD0
7FC03FD0
2E000B80
04000100
ENDCHAR
STARTCHAR caron
ENCODING 711
SWIDTH 754 0
DWIDTH 24 0
BBX 14 9 7 16
BITMAP
08000200
2E000B80
7FC03FD0
7FF0FFD0
2FFAFF80
07FFFD00
01FFF400
007FD000
000A0000
ENDCHAR
STARTCHAR breve
ENCODING 728
SWIDTH 754 0
DWIDTH 24 0
BBX 14 8 7 17
BITMAP
08000200
2E000B80
7FC03FD0
7FFAFFD0
2FFFFF80
0BFFFE00
01BFE400
00050000
ENDCHAR
STARTCHAR dotaccent
ENCODING 729
SWIDTH 754 0
DWIDTH 24 0
BBX 6 6 11 18
BITMAP
0100
3F40
7FD0
BFE0
BFC0
2A00
ENDCHAR
STARTCHAR ring
ENCODING 730
SWIDTH 754 0
DWIDTH 24 0
BBX 10 10 9 16
BITMAP
002D00
00BF00
02FF00
0FFF80
2FFFC0
7F4FD0
BFBFE0
BFFFD0
7FFF80
1FE800
ENDCHAR
STARTCHAR ogonek
ENCODING 731
SWIDTH 754 0
DWIDTH 24 0
BBX 13 10 9 -9
BITMAP
1E000000
3E000000
7E000000
7E000000
7F000000
3FA54000
2FFFFE00
0BFFFF40
01BFFF40
00059400
ENDCHAR
STARTCHAR tilde
ENCODING 732
SWIDTH 754 0
DWIDTH 24 0
BBX 16 6 6 18
BITMAP
01BE4069
0BFFE2FE
1FFFFBFC
3FFFFFF4
BF8BFFE0
BE02FF80
ENDCHAR
STARTCHAR hungarumlaut
ENCODING 733
SWIDTH 754 0
DWIDTH 24 0
BBX 18 10 5 14
BITMAP
0006000600
002F801FC0
00BFD0BFE0
02FFE2FFE0
0BFFDBFFD0
2FFE1FFF40
BFF87FF800
BFD07FE000
BF407F4000
2400280000
ENDCHAR
STARTCHAR endash
ENCODING 8211
SWIDTH 588 0
DWIDTH 19 0
BBX 17 5 0 6
BITMAP
05AAAFA400
7FFFFFFE00
7FFFFFFFC0
7FFFFFFF80
2FEA555000
ENDCHAR
STARTCHAR emdash
ENCODING 8212
SWIDTH 878 0
DWIDTH 28 0
BBX 26 5 0 6
BITMAP
1AABFFFFFFA900
7FFFFFFFFFFF90
3FFFFFFFFFFFF0
2FFFFFFFFFFFA0
06E95555540000
ENDCHAR
STARTCHAR quoteleft
ENCODING 8216
SWIDTH 203 0
DWIDTH 7 0
BBX 7 11 3 14
BITMAP
0100
0BE4
1FFC
3FFC
7FF4
BFE0
FFC0
FF80
FF40
BF00
0500
ENDCHAR
STARTCHAR quoteright
ENCODING 8217
SWIDTH 199 0
DWIDTH 6 0
BBX 8 10 2 14
BITMAP
02E4
03FD
07FE
0BFE
0FFD
1FFC
3FF4
BFE0
7FD0
0A00
ENDCHAR
STARTCHAR quotesinglbase
ENCODING 8218
SWIDTH 204 0
DWIDTH 7 0
BBX 8 11 -4 -6
BITMAP
0040
02F9
03FE
07FF
0BFE
0FFD
1FFC
3FF4
7FF0
2FC0
0600
ENDCHAR
STARTCHAR quotedblleft
ENCODING 8220
SWIDTH 410 0
DWIDTH 13 0
BBX 14 11 3 14
BITMAP
01000400
0F907F40
2FF4FFE0
7FF5FFE0
7FE2FFC0
BFD3FF40
FFC7FE00
FF87FD00
FF47FC00
FF07F800
6F005400
ENDCHAR
STARTCHAR quotedblright
ENCODING 8221
SWIDTH 425 0
DWIDTH 14 0
BBX 15 10 2 14
BITMAP
02E407D0
03FD0BFC
07FE0FFC
0BFE1FF8
0FFD3FF4
1FFC7FF0
3FF5FFD0
BFE3FF80
7FD2FE00
0A006400
ENDCHAR
STARTCHAR quotedblbase
ENCODING 8222
SWIDTH 430 0
DWIDTH 14 0
BBX 16 11 -4 -6
BITMAP
00400140
02F907E4
03FE0BFC
07FF0FFD
0BFE1FFC
0FFD2FF8
1FFC7FF0
3FF4FFD0
7FF2FF80
2FC1FE00
06001400
ENDCHAR
STARTCHAR bullet
ENCODING 8226
SWIDTH 299 0
DWIDTH 10 0
BBX 7 7 1 6
BITMAP
1F80
7FE0
FFF4
BFF8
BFF4
BFF0
7E90
ENDCHAR
STARTCHAR ellipsis
ENCODING 8230
SWIDTH 768 0
DWIDTH 25 0
BBX 23 6 -1 -1
BITMAP
1A400A500390
7FE02FF40BFC
BFE03FF42FFC
BFD03FF01FF8
7FC02FE00FF4
1A000A400290
ENDCHAR
STARTCHAR perthousand
ENCODING 8240
SWIDTH 889 0
DWIDTH 28 0
BBX 28 23 1 0
BITMAP
00090000050000
007F40001F0000
01FF4000BF0000
07FF8002FE0000
1FFFC00BFD0000
3F9FE02FF80000
7FAFE07FE00000
7FFFE1FF400000
7FFFD7FD000000
2FFD2FF4000000
01407FD0000000
0001FF40000000
0007FD09000080
002FF43F0003F0
00BFD1FF001FF0
02FF47FF407FF4
0BFD1FFFC1FFFC
1FF43FDFD3FDFD
3FD07F5FE7F5FE
7FC07FFFEBFFFE
BF807FFFD7FFFD
BF402FFE42FFE0
6D000550005500
ENDCHAR
STARTCHAR guilsinglleft
ENCODING 8249
SWIDTH 322 0
DWIDTH 10 0
BBX 11 15 -1 -1
BITMAP
000050
0002F4
000BF4
002FF0
01FFD0
1BFF40
7FFD00
7FE000
3FD000
2FF800
0BFE00
02FF40
00BF80
001BC0
000140
ENDCHAR
STARTCHAR guilsinglright
ENCODING 8250
SWIDTH 341 0
DWIDTH 11 0
BBX 10 15 -1 -1
BITMAP
090000
1F8000
0FF400
0BFE00
02FF80
00BFD0
002FE0
007FF0
01FFF0
0BFF50
2FF900
7FD000
BF4000
BD0000
240000
ENDCHAR
STARTCHAR fraction
ENCODING 8260
SWIDTH 541 0
DWIDTH 17 0
BBX 17 25 0 -1
BITMAP
0000000140
0000000780
0000001FC0
0000007FC0
000000FFC0
000002FF80
000007FE00
00001FFC00
00003FF000
0000BFD000
0002FF4000
0007FE0000
000FF80000
003FF00000
00BFD00000
02FF400000
0BFD000000
1FF8000000
3FE0000000
7FC0000000
BFC0000000
BF80000000
BF80000000
7F40000000
0500000000
ENDCHAR
STARTCHAR Euro
ENCODING 8364
SWIDTH 565 0
DWIDTH 18 0
BBX 18 19 -1 0
BITMAP
0000002F40
000001FFE0
00001FFFF0
0001BFFFF0
0007FFFFD0
001FFFF900
007FFF8000
00FFF90000
01FFF54000
6FFFFFF800
7FFFFFFE00
7FFFFFFF00
2FFEAA5400
05FE500000
00FFFFFA40
007FFFFFC0
001FFFFFD0
0002FFFF80
000016A900
ENDCHAR
STARTCHAR Delta
ENCODING 8710
SWIDTH 403 0
DWIDTH 13 0
BBX 18 21 -1 -1
BITMAP
0000015000
006BFFFF80
01FFFFFFE0
00FFFFFFF0
00BFFFFA40
0029FF4000
0000FF0000
0001FE0000
0002FE0000
0003FD0000
0007FC0000
000BF80000
000FF40000
001FF00000
003FE00000
007FE40000
6BFFFE0000
FFFFFF8000
FFFFFF4000
BFEA950000
1400000000
ENDCHAR
STARTCHAR minus
ENCODING 8722
SWIDTH 548 0
DWIDTH 18 0
BBX 17 5 0 6
BITMAP
15AAAEA400
FFFFFFFD00
FFFFFFFF40
FFFFFFFE00
7FA9555000
ENDCHAR
STARTCHAR approxequal
ENCODING 8776
SWIDTH 323 0
DWIDTH 10 0
BBX 8 24 1 -1
BITMAP
0078
02FC
03FD
07FE
0BFE
0FFF
0FFF
0FFE
1FFD
2FFC
3FFC
7FF8
7FF4
BFF0
BFF0
BFE0
BFE0
BFE0
BFE0
7FF0
3FF0
2FF0
1FD0
0100
ENDCHAR
STARTCHAR fi
ENCODING 64257
SWIDTH 810 0
DWIDTH 26 0
BBX 25 21 -1 -1
BITMAP
00000005500000
00001AFFF40F00
0006FFFFFD3F00
01BFFFFFFE7F80
07FFFFFEA9BFC0
0BFFF94000FFC0
07FFD00000FFC0
01FFC00000FF80
007F800001FF40
00BF400002FF00
2EFFEBF803FF00
7FFFFFFD07FE00
BFFFFFFC07FD00
7FFFFFE407FD00
1FFE940007FC00
0FF0000007FC00
1FE0000007FC00
2FD0000003FD00
1FD0000002FD00
0BC0000001FC00
01400000005000
ENDCHAR
STARTCHAR fl
ENCODING 64258
SWIDTH 1012 0
DWIDTH 32 0
BBX 33 21 -1 -1
BITMAP
000000055000000000
00001AFFF43E400000
0006FFFFFD7FD00000
01BFFFFFFEBFE00000
07FFFFFEA9FFD00000
0BFFF94001FFC00000
07FFD00002FF400000
01FFC00003FF000000
007F800007FE000000
00BF40000BFD000000
2EFFEBF80FFC000000
7FFFFFFD1FF8000000
BFFFFFFC2FF4000000
7FFFFFE43FF0000000
1FFE94007FE0014000
0FF000007FEAFFF400
1FE000007FFFFFFF40
2FD000003FFFFFFF80
1FD000001FFFFFFF80
0BC000000FFF955500
014000000154000000
ENDCHAR
STARTCHAR .notdef
ENCODING -1
SWIDTH 370 0
DWIDTH 12 0
BBX 1 1 0 0
BITMAP
00
ENDCHAR
ENDFONT
